/* XPM */
static char *_b44ab9b1ef24fb698578f2a5dfc79a2FZkH8h7NAHQHVBQf[] = {
/* columns rows colors chars-per-pixel */
"32 32 4 1 ",
"  c #693F55",
". c #964B4C",
"X c #B36950",
"o c #DE9A60",
/* pixels */
"                                ",
" XoXXooooooooooooooooooooooXXoX ",
" X XXXXXXXXXXXXXXXXXXXXXXXXXX X ",
" .............................. ",
"                                ",
" . . ... ... ... ...    . . ... ",
" . . ... ... ... .X.   . .. .X. ",
" . . ... .X. XX. .X.  X ... XXX ",
" X.X ... XXX XX. ..  X....  XXX ",
" X.X .X. XXX XX. .  XX...   XXX ",
" X.X XX. XXX X..   XX...    XXX ",
" X.X XX. XX. ..   XX...  .. XXX ",
" XXX XXX .X. .   XX...   .. XXX ",
" XXX XXX .X.    oX...  . .. XXX ",
" XXX XXX ..    oX...  .. X. XXX ",
" XXX .X. ..   oXX..   .. X. XXX ",
" XXX .X. .   XXX..   ... X. XXX ",
" XXX .X.    XX...  . ... XX XXX ",
" XXX ...   XX...  .. .X. XX XXX ",
" XXX ..   XX...  ... XX. XX XXX ",
" XXX ..  XX...   ... XXX X. XXX ",
" XXX .  .....  . .X. XXX X. X.X ",
" XXX   .....  .. .X. XXX X. X.X ",
" XXX  .....  .X. .X. .X. X. ..X ",
" XXX .. ..   .X. .X. .X. X. . . ",
" .X. . ..  . .X. ... ... X. . . ",
" ...  ..   . ... ... ... .. . . ",
"                                ",
" XXXXooooooooooooooooooooooXXXX ",
" XoXXXXXXXXXXXXXXXXXXXXXXXXXXoX ",
" . .......................... . ",
"                                "
};
