/* XPM */
static char *e5362223c5d34f68c9c2a02b1b4a6e98ylbHbXnIpCT2e15Q[] = {
/* columns rows colors chars-per-pixel */
"65 65 95 2 ",
"   c #010010",
".  c #010011",
"X  c #01000F",
"o  c #01000E",
"O  c #01010C",
"+  c #01010D",
"@  c #010012",
"#  c #01010E",
"$  c #02010F",
"%  c #02010E",
"&  c #01010F",
"*  c #03030F",
"=  c #292935",
"-  c #0B0B17",
";  c #03020D",
":  c #333435",
">  c #2C2D31",
",  c #05050F",
"<  c #050511",
"1  c #565662",
"2  c #151521",
"3  c #101116",
"4  c #C9CDC2",
"5  c #A1A39F",
"6  c #151518",
"7  c #01010B",
"8  c #02020E",
"9  c #06060F",
"0  c #4D4E51",
"q  c #303037",
"w  c #04040E",
"e  c #020013",
"r  c #01010A",
"t  c #060612",
"y  c #0C0C18",
"u  c #02030A",
"i  c #090913",
"p  c #12121A",
"a  c #5C5C67",
"s  c #2D2D39",
"d  c #161622",
"f  c #02020C",
"g  c #0F0F19",
"h  c #575761",
"j  c #02020D",
"k  c #080810",
"l  c #272731",
"z  c #01000D",
"x  c #04040F",
"c  c #010208",
"v  c #02020F",
"b  c #03030E",
"n  c #14141B",
"m  c #0C0D13",
"M  c #02020B",
"N  c #15151F",
"B  c #949597",
"V  c #5A5B5D",
"C  c #505156",
"Z  c #2F3035",
"A  c #03020E",
"S  c #02010D",
"D  c #1A1A27",
"F  c #353442",
"G  c #080714",
"H  c #656571",
"J  c #0A0A16",
"K  c #12121E",
"L  c #242331",
"P  c #0D0D19",
"I  c #23232F",
"U  c #4D4D59",
"Y  c #070613",
"T  c #353542",
"R  c #050412",
"E  c #020110",
"W  c #050510",
"Q  c #070713",
"!  c #4B4A57",
"~  c #040311",
"^  c #14141E",
"/  c #0B0B15",
"(  c #080814",
")  c #6D6D77",
"_  c #3A3A44",
"`  c #00000C",
"'  c #101016",
"]  c #0C0C14",
"[  c #313138",
"{  c #202028",
"}  c #090915",
"|  c #0D0D18",
" . c #373741",
".. c #565661",
"X. c #0D0D17",
/* pixels */
"                                                                                                                                  ",
"                                                                                                                                  ",
"                                                                                                                          . X     ",
"                    o o o o o o o                                                                           X o o o o X   X o o o ",
"                . X o o o o o o o .                                                                       . o o o o o X     O o o ",
"                    X o o o o o o                                                                         . . X o o X O O O + + O ",
"                    X + o o o o o X                                                                         @   o + X # # + X X + ",
"                    o o X $ o o o X                                                                         . X + + o o o % & X + ",
"                      + * = - + o X                                                                           # + + + ; : > ,   o ",
"                    X + < 1 2 + +                                                                           X + + + # 3 4 5 6 7 o ",
"                    X + 8 * + + +                                                                           X + + + X 9 0 q w # X ",
"                . X o + + O 7 + o X                                                                           o + # e & 8 +     # ",
"                .   o + + + + o o X                                                                           o + # . # + + + # O ",
"                    X X o o o X X                                                                             o + o X X X X X   + ",
"                . . . . .                                                                                   X o o + + X X X X X o ",
"                                                                                                          . X X X # 7 O + + + + X ",
"        . .   X # + + + o X                                                                               . @ @ .   X X           ",
"        @ @   # + + + + o o                                                                                 @ .     X             ",
"          . X + + + + + o o                                       . X o o o o                                       o X   X .     ",
"          . o + 7 7 + + o o                                       . X o o o o                                   X o + + o X .     ",
"          o o O 7 7 + #   X                                 . . . @ X o X X o                               X o o + + + + #       ",
"          o o O 7 7 r 7 + o                                 X X X X + + 8 t + X                             X o o + y t + #       ",
"      . X o o + + 7 u i + + X                           . X + + + + + 7 p a * o                               o + + s d + #       ",
"      .   o o o + f g h j + X                           . X + + + + + O k l 8 o                               o + + 8 j + #       ",
"            X o o z j x + #                         . X # O r c + + + + 7 O + o                               X o + + + + #       ",
"          .   o X o o o # o X                         o + & X O v & # + + + o o                                   o o o o X       ",
"              X X X . .   o o                         X o o & b n m M + + X . .                                   o X   .         ",
"                                                      X o + 8 N B V b + o                                                         ",
"                                                      X o + + - C Z A o o                                                       X ",
"                                                    X X o o # j ; S v o X                                                     . o ",
"                                                    . @             X                                                         . o ",
"                                                            . . . . .                                                         . o ",
"                                                          X o o o o X                                                         . o ",
"                                                        . X + + + O o o o X X o o o o o                                       . o ",
"                                                        . o + + + O o o o + O o o X X o                                       . o ",
"                                                      X X + #   o # + + + + O o o X o X .                                     . o ",
"                                                      o o + o . X & + + + + O % $ o o X                                       . o ",
"                                                      X # + o   . * g 8 + + O D F # . X                                       . o ",
"      . .                           . X o     . X o o o o + + + o G H J + + + K L &   + X                                     . o ",
"        X                           . X o     . X o o o o + + + o 8 < + + + + + o o # X                                       . o ",
"    X o o X                         . X #   X o o o X o X + + + o o + + + + o # + o +                                     .     X ",
"    + + + +                         . X + + t P S + o o . X o o + + o + + +   X o o                                         o o o ",
"    o + + o                         . X + + I U 8 + o X . X o o           . X # o o . . .                                   o o o ",
"    X Y T R E o X                   . X + + W Q # o o X . X X X . . . . .   o O o + o o X                                   o o o ",
"    X G ! ~ E + X .                 . X o o o o o X X X                 . X X + + + + +                                     o X # ",
"    z + + + o + X                                                           X + + + + +                                     o   + ",
"    o + + + + X                                                             + 7 O + + +                                     o o X ",
"    o + + + +                                                               8 ^ / O + + X                                   o o o ",
"    o + + + +                                                               ( ) _ O + o .                                   o o o ",
"    + O + o o X                                                             $ d - + X X                                           ",
"      o o o o X                                                             o 8 8 ` 7 7                                           ",
"      . X o o X                                                             o & # + O O                                           ",
"        X o o                                                                     + X X X                                         ",
"    o # o o o                                                                   X + X o o                                         ",
"  X + + + o + #                                                                 X X   X X                                         ",
". o + + + + O # X .                                                                                                               ",
"  X o + + + + + X .                                                                                                           . X ",
"o o + + 7 ' ] O X .                                                                                                           . o ",
"+ + + + 7 [ { O o             . .                                                                                             . o ",
"+ + + + o O f + o             X X o o X                                                                                       . o ",
"+ + o X   o o o o         . X + + 7 r + o o X                                                                                 . o ",
"+ + o X   o o o o X       . X + # } | o o o X                                                                                 . o ",
"+ o o o X o o o o o       . X O r  ...# o o X                                                                                 . o ",
"o o o o X                 . X + r i X.8 o o X                                                                                 . # ",
"o o o o                       X + 8 8 % o o X                                                                                 . # "
};
