/* XPM */
static char *b89c252e541a4831a72167673d30af6fOFJkd01WZywsbq63[] = {
/* columns rows colors chars-per-pixel */
"65 65 219 2 ",
"   c #000000",
".  c #04040B",
"X  c #09060B",
"o  c #0B0807",
"O  c #130D0C",
"+  c #1B120A",
"@  c #060613",
"#  c #0C0A15",
"$  c #0B0A1B",
"%  c #070718",
"&  c #120E18",
"*  c #1B151D",
"=  c #171119",
"-  c #24191C",
";  c #271913",
":  c #352116",
">  c #3A271E",
",  c #2E2017",
"<  c #0B0B23",
"1  c #100F20",
"2  c #1A1521",
"3  c #191525",
"4  c #261C24",
"5  c #261D2A",
"6  c #271C23",
"7  c #2C2026",
"8  c #2C222A",
"9  c #352425",
"0  c #39292B",
"q  c #3F3231",
"w  c #362E36",
"e  c #442B15",
"r  c #4A2F1D",
"t  c #4B3119",
"y  c #5B3B1E",
"u  c #432E29",
"i  c #422B24",
"p  c #4B332B",
"a  c #4B352B",
"s  c #503529",
"d  c #5D3E2C",
"f  c #593C26",
"g  c #473835",
"h  c #563B30",
"j  c #603E2A",
"k  c #5F402C",
"l  c #58453A",
"z  c #4C4335",
"x  c #65422A",
"c  c #6B452B",
"v  c #6F492F",
"b  c #6E4622",
"n  c #714B25",
"m  c #744B2C",
"M  c #7E4F22",
"N  c #7B532C",
"B  c #684B39",
"V  c #774E32",
"C  c #6E513C",
"Z  c #695231",
"A  c #7F5739",
"S  c #795637",
"D  c #685444",
"F  c #7F5F42",
"G  c #554D4E",
"H  c #8E5C2E",
"J  c #865628",
"K  c #935D2C",
"L  c #865B34",
"P  c #8C5C33",
"I  c #825C3B",
"U  c #8B5F3A",
"Y  c #945F32",
"T  c #94622D",
"R  c #9F632A",
"E  c #8D6138",
"W  c #966433",
"Q  c #9C6633",
"!  c #9C6A33",
"~  c #9C6C3B",
"^  c #956B3A",
"/  c #9F773E",
"(  c #A46A2E",
")  c #AB6B2C",
"_  c #A4642B",
"`  c #AD702F",
"'  c #A56C33",
"]  c #AA6D33",
"[  c #A26E3C",
"{  c #A86F38",
"}  c #A47036",
"|  c #A4723C",
" . c #AA743D",
".. c #A87235",
"X. c #876546",
"o. c #986C42",
"O. c #9D7444",
"+. c #9C764B",
"@. c #99794E",
"#. c #967B53",
"$. c #9A7A54",
"%. c #9B7D5A",
"&. c #937B5A",
"*. c #A46F41",
"=. c #A37443",
"-. c #AA7542",
";. c #A57B4B",
":. c #AA7D4D",
">. c #A77846",
",. c #A57E53",
"<. c #AA7F54",
"1. c #B17B44",
"2. c #8F7F63",
"3. c #967E62",
"4. c #AB8255",
"5. c #A6855C",
"6. c #AA855B",
"7. c #AA845A",
"8. c #B4895F",
"9. c #8E8164",
"0. c #8D856D",
"q. c #938162",
"w. c #918369",
"e. c #9B8666",
"r. c #8C8572",
"t. c #8A8872",
"y. c #8A877B",
"u. c #868A7E",
"i. c #898A7C",
"p. c #85877A",
"a. c #918775",
"s. c #A68964",
"d. c #AA8B65",
"f. c #A98D6B",
"g. c #A78866",
"h. c #B78E64",
"j. c #AA936C",
"k. c #B0936D",
"l. c #A68F74",
"z. c #AB9475",
"x. c #A7957B",
"c. c #7F8E87",
"v. c #7E8F8D",
"b. c #7D918D",
"n. c #7D8F92",
"m. c #7D9192",
"M. c #848C84",
"N. c #818E8C",
"B. c #81918B",
"V. c #819087",
"C. c #808E91",
"Z. c #819393",
"A. c #85999A",
"S. c #8A9A9E",
"D. c #829697",
"F. c #979797",
"G. c #AA9A84",
"H. c #A89B88",
"J. c #97A29B",
"K. c #ACA18E",
"L. c #AAA494",
"P. c #AAA69A",
"I. c #AAA99C",
"U. c #A5A799",
"Y. c #B7AC97",
"T. c #8C9CA0",
"R. c #8CA1A2",
"E. c #92A6A9",
"W. c #9AABAE",
"Q. c #93A7AA",
"!. c #9AADB4",
"~. c #9EB1B5",
"^. c #9FB5BD",
"/. c #ABADA3",
"(. c #ACAFAA",
"). c #A7ACA2",
"_. c #ACB3AC",
"`. c #A8B0A8",
"'. c #A2B4B5",
"]. c #AAB5B4",
"[. c #ABBAB6",
"{. c #A3B5BA",
"}. c #ACB7B9",
"|. c #A5B9BD",
" X c #ABBBBD",
".X c #B1B9B9",
"XX c #B2ABA8",
"oX c #C1A685",
"OX c #C2A992",
"+X c #C3BFB2",
"@X c #C4BBA7",
"#X c #C8C4B5",
"$X c #A7BDC3",
"%X c #A9BCC2",
"&X c #A7BCC8",
"*X c #B5BAC0",
"=X c #AEC1C5",
"-X c #ADC1C9",
";X c #A0C0C8",
":X c #B1C3C6",
">X c #B3C5CB",
",X c #B5C9CD",
"<X c #BACBCE",
"1X c #BCCBD2",
"2X c #BED2D6",
"3X c #CCCFC3",
"4X c #C3D3D5",
"5X c #C4D4DA",
"6X c #CBDBDD",
"7X c #CBD9D7",
"8X c #D2DAD5",
"9X c #D2DCD9",
"0X c #CAD0C6",
"qX c #D3E0DB",
"wX c #C7DAE1",
"eX c #CDDEE0",
"rX c #D2DEE1",
"tX c #CEE1E2",
"yX c #D1E1E2",
/* pixels */
"                                                                                                                                  ",
"                                                                                                                                  ",
"                                                                                                                                  ",
"                                                                                                                                  ",
"                                                                      X h &                                                     . ",
"                                            #                         O Q J ;                                                     ",
"                                        X 1 C o                       , ,.P.f.! i # X                                             ",
"                                  @ $ g F.*XXX+                       M G.%X$X].j.A 5 < $ X                                       ",
"                            @ < 3 D Y.8XqX1X$Xz                     + ;.}.%X%X X%X`.f.I d 5 < @                                   ",
"                        @ 1 8 B l.0XyXeX<X&X&XU.:                   y G. X%X&X%X%X%X[.P.;.W h 3 $                                 ",
"                      $ 8 E 4.+XrXyX6X,X%X%X%X XX.#               X Q _.&X%X%X%X%X%X%X{.Z.q.] P w .                               ",
"                      d ] Y.9XqXtX2X%X%X%X%X%X%Xx.v 1 .           t <.%X$X4X7X%X%X%X%XE.v.N.u.] p .                               ",
"                      K 6.4XyXwX>X%X%X%X%X%X%X%X/.-.T n y t e e n R G.$X,XtXyX,X%X%X XD.m.N.a.J @                                 ",
"                      u | [.=X%X%X%X%X%X%X%X%X&X Xd...-.-.>.:.4.4.s._.=X7XtXyX<X%X%X!.m.N.N.o.;                                   ",
"                      X f z.&X%X&X$X%X%X%X%X%X X$X}..X X%X%X%X%X%X&X$X4XyXyXyX,X%X%XS.v.m.r.J                                     ",
"                        X ^ ].&X$X X%X%X%X%X%X%X X%X X X X X%X%X%X%X%XeXyXyXyX:X%X{.m.m.M.O.-                                     ",
"                          : 4. X X%X%X%X%X%X%X%X%X%X%X%X%X%X%X%X%X%X<XyXyXyXeX%X%X~.m.b.&.H $                                     ",
"                          X L L.%X%X%X%X%X%X%X%X%X%X%X%X%X%X%X%X%X%X4XyXyXyX6X%X%X|.E.J.*.H <                                     ",
"                            p <.[.&X%X%X%X%X%X%X%X%X%X%X%X%X%X%X%X%XtXyXyXyX4X%X%X%X%X XG.] s @                                   ",
"                            h s.%X%X%X%X%X%X%X%X%X%X%X%X%X%X%X%X%X:XtXyXyXtX<X%X%X%X%X%X$XL.] n .                                 ",
"                          # %.}.%X%X%X%X%X%X%X%X%X%X%X%X%X%X%X%X%X,XyXyXyXtX:X%X%X%X%X&X X XG.' -         . @ X                   ",
"                          C _.%X;X X%X%X%X%X%X%X%X%X%X%X%X%X%X%X%X:XyXyXyX6X=X%X%X%X%X%X X%X Xf.c $ @ # 2 p v m 5                 ",
"                        - H.%X&X:X>X=X%X%X%X%X%X%X&X%X%X%X&X%X%X%X%X6XyXyX6X%X%X%X%X%X%X$X%X%X}.| L C o.1.h.oX6.x .               ",
"                      @ D }.&X4XrXtXeX5X:X%X%X%X%X%X%X%X%X%X%X%X%X%X:X5XeX6X:X%X%X%X%X%X$X&X%X%XG.:.oX#X7XrXyX+XK X               ",
"                    . 7 x.%X-XtXyXyXyXyX6X4X%X%X%X%X X%X}.(.I.L.I._. X&X%X%X%X$X%X%X%X%X%X%X%X$X%X X5XeXrXyXtX8X| $               ",
"                X % < D ].$X%X6XyXyXyXyXyXyX2X=X$X%X`.z.,. ...] ] -.5.L.}.$X%X X&X%X%X%X%X%X%X X X%X%X-X,X1X<X>X>.7               ",
"      I I F X.l q 5 g f.[.&X X,XtXtXtXyXyXyXyX5X}.H.| ' ) ] >.q.q.#.] ' 4._.%X%X$X%X%X%X%X%X%X%X%X%X%X$X$X%X%X Xs.p               ",
"      ) h.8.7.4. .] ] L.%X%X$X%X,XeXtXyXyXtXyX9Xk.' A c k d x m ~ &.y.q.| >.). X%X%X%X%X%X%X%X%X%X%X%X%X%X%X%X Xx.c               ",
"       .8X9X8X8X3X#X@X}.&X%X%X%X%X:X4X6XyXyXyXY.s =             o e X.u.y.| ;.[.%X%X%X%X%X%X%X%X%X%X%X%X%X%X%X%XK.K X             ",
"      :.6XtXyXyXtXtXwX-X&X%X%X%X%X%X%X>X5XrX#Xg @                   : @.c.r.] G.%X%X%X%X%X%X%X%X%X%X%X%X%X%X%X XI.' =             ",
"      :. X%X%X:X:X=X%X%X%X%X%X%X%X%X%X%X%X%XG @                       V 2.N.&.>.}.%X%X%X%X%X%X%X%X%X%X%X%X{.Q.S.N.) g             ",
"      :.%X%X%X%X%X%X%X%X%X%X%X%X%X%X%X%X%X].4                         9 [ v.y.] P.%X%X&X%X%X%X%X%X%X%X!.A.Z.n.v.v...C             ",
"      <.%X%X%X%X%X%X%X%X%X%X%X%X%X%X%X%X%XL.*                         $ P u.N.| l.%X X$X%X%X%X%X%X%XS.n.b.v.n.v.b.| A             ",
"      ,.&X X%X%X%X%X%X%X%X%X%X%X%X%X%X%X%XG.2                         X N p.b.O.6.%X%X&X%X%X%X%X%X{.m.b.m.n.n.N.V.| L             ",
"      ;.%X%X%X%X&X&X%X%X%X%X%X%X%X%X%X%X%Xz.q                         X H t.m.$.,.%X%X%X%X%X%X%X%X XR.M.M.i.a.e.$.' K             ",
"      >.{.|.{.|.%X%X%X%X%X%X%X%X%X%X%X%X%Xz.C                         O ' u.b.%.4.%X%X%X%X%X%X%X%X%X_.>.] ' ' Y Q Z 8             ",
"      | Z.D.D.D.A.R.Q.%X%X%X%X%X%X%X%X%X XH.o.*                       e | M.b.$.7.%X%X&X%X%X%X%X%X%X).] H q 4 # o                 ",
"      [ N.v.b.m.n.v.n.!.%X%X%X%X%X%X%X%X%XU.[ D .                     J +.v.C.@.k.6X6X6X5X1X:X%X%X%XL.] -                         ",
"      } B.m.b.m.m.n.n.!.%X%X%X%X%X%X%X%X%X_.{ 3.g                   ; ( w.C.b.O.OXyXyXyXyXyXrX4X%X%Xz.] o                         ",
"      ( w.w.0.0.0.q.w.`.$X&X%X%X%X%X%X%X$X%X5.O.p.l O           . - H $.M.n.M.| .X6XyXyXyXyXyXyX,X%X6.)                           ",
"      W ! J P Y d a U G.%X%X%X%X%X%X%X%X X%XP.-.r.v.$.N f a p u j _ O.M.N.B.q.5. X=X2XeXyXyXyXyX,X[.-.(                           ",
"                  X 2 e.%X$X$X%X%X%X%X%X$X%X[.z.=.u.b.u.%.O.] ..O.9.M.B.b.M.=.L. X%X%X=X<X4X4X<X%X).) n                           ",
"                    X S /.$X%X%X%X%X%X%X%X%X%X}.s.=.v.m.b.N.v.u.N.N.n.n.c.+.4.$X%X%X%X%X%X%X$X%X%Xf.) r           .               ",
"                      u f..X%X%X%X%X%X%X%X%X%X X[.z.=.w.M.v.N.m.m.b.b.t.=.4.}. X&X%X%X%X%X%X&X X(. .' 9                         . ",
"                      & I _.&X%X%X%X%X%X%X%X%X%X X XG.,.>.#.9.9.w.2.>./ d.].%X X$X%X%X%X%X%X%X%X_.7.( 9                           ",
"                      $ V d.%X%X%X%X%X%X%X%X%X%X%X X$X[.L.f.-.-.| >.l./.%X&X$X%X$X%X%X%X%X%X%X%X$X}.<.c X                         ",
"                      6 ~ I.$X%X%X%X%X%X%X%X%X$X%X X$X%X%X X%X$X%X%X%X%X%X%X%X%X%X%X%X%X%X%X%X%X X X}.g.b O                       ",
"                  X > o.P.%X%X%X%X%X%X%X%X%X%X%X%X%X%X%X%X%X$X X X%X%X%X%X%X%X%X%X%X%X%X%X%X%X%X%X%X%X}.s.T -                     ",
"                $ x -./.$X%X&X%X%X%X%X%X%X%X%X%X%X%X%X%X%X%X%X$X%X%X%X%X%X%X&X&X%X%X%X%X%X%X%X%X%X%X&X%X].:.m                     ",
"              @ s ] I. X%X%X%X%X%X%X%X%X%X%X%X%X%X%X%X%X%X%X%X%X%X%X%X%X%X%X%X%X%X%X%X%X%X%X%X%X%X X%X'.F.,.v                     ",
"              @ a ` P.%X%X%X%X%X%X%X%X%X%X%X%X%X%X%X%X%X%X%X%X%X%X%X%X%X%X&X$X%X%X%X%X%X%X%X X%X%X$XE.Z.%.( 2                     ",
"                @ v ;.].$X%X%X%X%X%X%X%X%X~.R.E.W.~.^.{.}.|.|.|.{.{.{.'.'.{.'.}.}.%X%X%X%X%X&X&X'.T.v.r.W 8 .                     ",
"                  # m d.}.%X$X%X%X%X%X|.E.B.M.N.N.v.v.m.m.Z.Z.Z.m.m.m.m.m.v.v.i.,.x.$X&X%X%X&X'.Z.v.0.! 6 .                       ",
"                    2 ^ d.%X%X%X%X%X|.S.N.M.] @.r.M.n.m.N.m.m.m.n.m.n.b.m.i.$.] ' ] L.&X%X%X!.B.n.t.L *                           ",
"                      7 W x. X$X X'.D.v.M.| ] ] ] | $.3.r.u.M.M.u.y.w.$.=.] ) ( m a S (.%XW.m.b.0.E =                             ",
"                      . u ' G. X{.D.N.N.#.c 4 9 m J K T ' ' ~ | | ] ) ) ) R t o     X B W.D.N.p.Q 0 .                             ",
"                        @ u ' H.S.Z.n.9.J X                   o o O O O o             O #.M.t.~ 0 @                               ",
"                          @ B ( 3.b.0.P =                                               f O._ 9 @                                 ",
"                            # a ( +.! 6                                                 X m 4 @                                   ",
"                              X 4 m *                                                     X X                                     ",
"                                X < .                                                                                             ",
"                                                                                                                                  ",
"                                                                                                                                  ",
"                                                                                                                                  ",
"                                                                                                                                  "
};
