/* XPM */
static char *_b85bab1c27f4a94bc2fd048c0774399foQRkDX2IWb8iSYi[] = {
/* columns rows colors chars-per-pixel */
"65 65 250 2 ",
"   c #000000",
".  c #04040B",
"X  c #0A0A0D",
"o  c #060612",
"O  c #0B0A15",
"+  c #0B0A1B",
"@  c #070A12",
"#  c #18141A",
"$  c #140F11",
"%  c #281718",
"&  c #331519",
"*  c #3B271C",
"=  c #181724",
"-  c #101125",
";  c #231922",
":  c #362924",
">  c #292735",
",  c #362C3B",
"<  c #2E292A",
"1  c #1D2633",
"2  c #5C0F08",
"3  c #471915",
"4  c #50110D",
"5  c #630C06",
"6  c #640C09",
"7  c #6C0C08",
"8  c #780D0A",
"9  c #671609",
"0  c #761708",
"q  c #6C1912",
"w  c #532619",
"e  c #67331C",
"r  c #73280E",
"t  c #483726",
"y  c #50362A",
"u  c #6C3525",
"i  c #6C541C",
"p  c #5C4731",
"a  c #71512A",
"s  c #7C662F",
"d  c #6C5F1E",
"f  c #343246",
"g  c #473C57",
"h  c #47394B",
"j  c #35464A",
"k  c #304653",
"l  c #2B5F73",
"z  c #495050",
"x  c #6C574E",
"c  c #59725B",
"v  c #686A55",
"b  c #68734F",
"n  c #554A6A",
"m  c #564969",
"M  c #53516B",
"N  c #65576F",
"B  c #4F6D6C",
"V  c #6D6B69",
"C  c #8B0D0B",
"Z  c #930C0C",
"A  c #960D0A",
"S  c #97100D",
"D  c #8A160F",
"F  c #923011",
"G  c #AD3408",
"H  c #BC3833",
"J  c #B52F28",
"K  c #C33A0F",
"L  c #C83B37",
"P  c #934D15",
"I  c #A75615",
"U  c #B85617",
"Y  c #AE4A12",
"T  c #957417",
"R  c #A96617",
"E  c #BA6618",
"W  c #A87819",
"Q  c #B77816",
"!  c #B1710E",
"~  c #8D5727",
"^  c #AF5128",
"/  c #997829",
"(  c #916C2A",
")  c #A77826",
"_  c #B26B2C",
"`  c #D64916",
"'  c #CA5513",
"]  c #C86617",
"[  c #D56A1A",
"{  c #C67419",
"}  c #DA7A18",
"|  c #CF6F0C",
" . c #E37D14",
".. c #E17A0F",
"X. c #C64239",
"o. c #CC4E31",
"O. c #CE7227",
"+. c #E47829",
"@. c #D64944",
"#. c #D45046",
"$. c #EB5852",
"%. c #F26156",
"&. c #EF6256",
"*. c #7B8D4F",
"=. c #9F8915",
"-. c #A98817",
";. c #B78919",
":. c #AD9B15",
">. c #AB971A",
",. c #BD941D",
"<. c #B39A17",
"1. c #B6840B",
"2. c #B4A516",
"3. c #BBAC1B",
"4. c #B8A619",
"5. c #BEB416",
"6. c #BEB31A",
"7. c #AEA115",
"8. c #948B30",
"9. c #B98527",
"0. c #AA9724",
"q. c #BC9323",
"w. c #AB9834",
"e. c #B18F32",
"r. c #BAA625",
"t. c #B6AA2E",
"y. c #C68A1B",
"u. c #D78918",
"i. c #C59A1C",
"p. c #D69312",
"a. c #F69C04",
"s. c #F79B06",
"d. c #E58619",
"f. c #E79919",
"g. c #EA970B",
"h. c #C3AB1B",
"j. c #D8AA1E",
"k. c #C1B316",
"l. c #C2B31B",
"z. c #C7B91E",
"x. c #DFA30E",
"c. c #E7A51B",
"v. c #F7A91A",
"b. c #F7A712",
"n. c #D98C27",
"m. c #CA9A25",
"M. c #D89925",
"N. c #C68634",
"B. c #CF902F",
"V. c #EE8D2A",
"C. c #E98A25",
"Z. c #E79628",
"A. c #F4932E",
"S. c #EC9333",
"D. c #EB9539",
"F. c #F39534",
"G. c #F39539",
"H. c #F69739",
"J. c #EE8D2F",
"K. c #C9A724",
"L. c #DDAE24",
"P. c #DDAE29",
"I. c #D7A626",
"U. c #C9B825",
"Y. c #DEB123",
"T. c #D8B62A",
"R. c #DAA838",
"E. c #D9B733",
"W. c #CBB436",
"Q. c #E1AD25",
"!. c #E8A828",
"~. c #F4AC24",
"^. c #E4B329",
"/. c #FAB52B",
"(. c #FDBB2D",
"). c #F8B427",
"_. c #E9AA35",
"`. c #E6B435",
"'. c #FCBB32",
"]. c #F8BB36",
"[. c #F4A33D",
"{. c #D4C32E",
"}. c #D8C434",
"|. c #D0CA27",
" X c #F8C42E",
".X c #F5C534",
"XX c #EBC530",
"oX c #948D49",
"OX c #AA9749",
"+X c #A68E53",
"@X c #B5A558",
"#X c #BBAD49",
"$X c #AC976D",
"%X c #BDAB65",
"&X c #D79A4C",
"*X c #EF9B43",
"=X c #D3AC51",
"-X c #E5B643",
";X c #F5A75A",
":X c #E7A84F",
">X c #C4B66E",
",X c #F5B26D",
"<X c #D8CA4D",
"1X c #FAC647",
"2X c #FBCB54",
"3X c #FCD25C",
"4X c #E9C94C",
"5X c #FCDA6C",
"6X c #FCD667",
"7X c #FDD568",
"8X c #CEC37C",
"9X c #327287",
"0X c #0A6CAB",
"qX c #0D75B4",
"wX c #176391",
"eX c #487183",
"rX c #697686",
"tX c #86788F",
"yX c #2E86B3",
"uX c #0486BF",
"iX c #568488",
"pX c #4E8088",
"aX c #5C95A9",
"sX c #0985D0",
"dX c #1498EB",
"fX c #0893EB",
"gX c #26A3ED",
"hX c #2D99D7",
"jX c #51A5C6",
"kX c #968B8F",
"lX c #AA9685",
"zX c #BAA78B",
"xX c #9F96A6",
"cX c #B7A7A7",
"vX c #B7ADB2",
"bX c #C4B28F",
"nX c #FABC82",
"mX c #C7B5B2",
"MX c #D4CB94",
"NX c #D6C7BA",
"BX c #D2C7AC",
"VX c #C7BBC4",
"CX c #D0BEC9",
"ZX c #D6C8C8",
"AX c #DBCED4",
"SX c #D9CBD8",
"DX c #DAD1D6",
"FX c #DDD2CD",
"GX c #E7DCDF",
"HX c #E9E3DA",
/* pixels */
"                                                                                                                                  ",
"                                                                                                                                  ",
"                                                                                                                                  ",
"                                                      . o o o o . . . . .                                                         ",
"                                                  O 1 x V c c B z z j > = o                                                       ",
"                                              o = B z z V kXkXxXcXxXrXeXv : o                                                     ",
"                                          . ; / w.iXB k k j k k j M rXeXb u.i O .                                                 ",
"                                        . : w.U.4.w.*.iXpXpX9X9Xl B b e.!.).~.i # .                                               ",
"                                        # W.{.3.L..X'.`.R.R.R.-X].'.'.'.(.].'.'.B.* .                                             ",
"                                      X #X4Xh.<.]._.J.O._ _ O.O.n._.'.'.'.].(./.Z.B.t .                                           ",
"                                    . 8.{.U.4.M.Z.} P x kXcXkXx _ n.!./.).~._.[.G.J.N.: o                                         ",
"                                  X i U.k.3.r.R.E _ , m N tXVXZXN E E M.R.&XG.F.A.G.F.N.y +                                       ",
"                                O t 0.3.l.4.E.M.[ a , n n m N vXtX~ ] y.P.:XG.F.F.G.F.D.( - o                                     ",
"                              . : I.XXh.r.K.E.M.[ ~ > f m n m N N I ' ;.P.-X*XF.F.F.V.F.D.y + o                                   ",
"                            o = / ].(./.].P.Q.p.! E : > , g z h p O.! i.P.`.:XG.F.F.F.F.F.N.B c #                                 ",
"                      . O > B iXoX].'.'.(.'.~.p.I.! _ a y y p a _ ! m.j.P.^.:XD.G.H.F.F.A.G.v hXaX> .                             ",
"                    o + k jXgXdXeX`.'.'.'.'.b.p.Q.I.Q ] [ [ { { -.q.r.P.P.P.:XD.F.G.F.F.A.C.R 9XdXyX= .                           ",
"                    1 aXgXfXsX0Xb _./.(.'./.g.I.j.Y.L.K.m.m.I.I.T.9XjXOXL.Y.R.:XF.J.C.+.[ ' G s yXdXhXf o                         ",
"                    9XdXfXqX0XwX~ [ d.f.v.b.p.L.P.P.L.Q.Q.P.P.Q.t.qXgXkXI.j.R.S.} [ ' ` K F I p.B qXsXyX1 o                       ",
"                  @ 0XsX0X0X0XB P G G ` ` ] ] { Q Q Q Q ;.y.;.;./ qXdXaX_ ] E ` ` G G G Y u./.'./ z j l j .                       ",
"                  @ l wXl B oXI.]._.n.U Y F F G G G G K K Y Y K ^ wXdXjXF F P I R Q f.v.).'.'.).R.: + o + .                       ",
"                    . + + s '.'.(.(.v.j.K.T.U.K.W.B.N.N.9.9.9.9.e.9XuXjXOX<X}.z.U.`. X'.'.(.(.(.^.t o   .                         ",
"                      . O e.(.(.'.(./.^.l.6.5.6.l.U.E.r.r.r.r.6.U.8.0XhXoXl.k.k.{.XX X(.'.'.(.'.'.( O   .                         ",
"                        # I.(.(.'.(.~.E.k.6.6.6.k.2.w.bXBXNXMX#X5.t.c yX*.k.k.{.l.}. X(.(.'.'.'.(.) O                             ",
"                        # ^.(.'.(.(.c.K.k.6.5.5.2.8.mXAXSXSXDXHX#X5.r.b 8.l.6.6.k.T. X(.'.'.'.(.(.B.#                             ",
"                        O M.~.(.(.).x.U.k.6.6.r.>.OXVXAXZXZXAXGX>X0.0.w.0.l.l.k.l.}. X(.(.'.'.(.'._.#                             ",
"                        . &XD.Z.).v.f.U.6.t.>XBXbX$XMX8X%X@X>XMXbXNXHXHXBX%X3.5.l.{. X(.'.'.'.(.(.I.$                             ",
"                        . S.F.*X[.Z.M.U.w.BXSXAXbX<X/ v kXcXlXoX<XMXZXAXDXAXOXl.l.T.XX X(.'.'.(.(.f.X                             ",
"                        . O.G.F.F.S.M.U.$XAXDXmX@X8.h n N kXvXVXx <XzXAXSXAX$Xl.l.U.XX(.(.'.(.(.(.c.$                             ",
"                        o E F.F.F.J.Z.z.+XZXSXmX=Xd h n m n M xXV U.>XmXSXVXOXl.6.U.XX(.(.'.(./.).p.#                             ",
"                        o _ F.F.F.C.M.l.0.$XmXmX=Xs > f g n m n y |.t.cXzXw.4.z.k.}..X(./.~.!.c.j.m.#                             ",
"                        o ( C.F.F.V.M.l.k.<.OX$XOXU.: > > g g , ( {.+XoX>.2.6.U.U.}.I.I.I.Q.^.Y.L.) #                             ",
"                        o ~ G.F.F.V.u.6.l.6.>.bXNX@Xt.T i p T 0.U.zXFXbX4.6.4.k.U.<X-XL.Y.P.Q.Q.P./ O                             ",
"                        o t A.F.F.d.n.U.k.6.w.ZXDXZXzX#XW.W.#XzXmXDXDXBX0.2.6.5.l.}.E.Q.Y.Y.Y.Q.I.i +                             ",
"                        o + I } G.C.u.|.6.<.0.zXAXAXDXSXmXlXCXDXDXSXSXbX2.6.5.5.U.E.P.Y.Y.Q.P.i.{ w o                             ",
"                        . O ~ { { y.M.;.,.3.3.0.$XmXmXlX+X0.$XcXcXzX+X>.3.k.k.k.{.T.K.;.;.;.! M.B.~ = .                           ",
"                      . # ~ V.S.u.!.].].!.,.-.>.-.0.w.0.2.r.-./ / -.4.3.3.4.3.4.K.;.-.,.I.j.y.).1X4XB.t                           ",
"                      # _ F.F.Z./.2X5X2X'.).} ' ` ' ] R T :.<.=.y.:X&X) ] ] ' ' I W q.I.P.P.m.(.'.2X7X=X$                         ",
"                    $ ( F.F.C.!.].3X5X2X(.].c.Y G G P -.4.6.5.6.,.D.;X,X_ G F P R ,.i.L.P.Y.y.'.(..X5X6Xd .                       ",
"                  . i S.F.V.d./..X7X5X1X(.'./.u.Q R -.2.k.l.k.k.3.n.D.;X,X) r.T ,.,.I.Q.Y.Q.,.`./.'.2X5X-X: o                     ",
"                  # N.F.F. .u.M.2X5X5X].(.'.'.f.{ W <.5.5.k.k.5.>.9.F.G.,X=X0.-.q.,.I.Q.L.Q.i.y.!.'.].7X6X/ ; o                   ",
"                o t S.F.F.d.f.'.2X5X3X'.(.'.).g.! :.:.5.5.k.k.6.4.;.G.F.;XnX) q.m.i.P.`.Y.Q.i.!.(.'.(.1X5X_.t o                   ",
"                = _ F.F.F...).(.3X6X1X'.(.(.b.p.-.:.2.k.6.6.5.l.k.<.D.F.*X,X=X;.,.m.`.4X`.Q.i.Q.'.).(.].5X2Xa o                   ",
"                : n.F.H.H...'.].6X6X.X'.(.).s.Q >.:.2.3.4.5.5.k.k.<.n.F.F.;XnX9.,.i.-X4X`.P.K.M.'.'.].].6X7XB.; .                 ",
"                y S.F.H.F.d.!.].5X3X].'.).s.g.-.:.:.2.k.l.k.k.5.l.=.B.F.F.*X,Xe.q.i.`.4X^.Q.K.B.'.(.'.(.3X5X-Xp o                 ",
"              . ~ F.F.F.F.} ~.1X5X2X'.'.b.a.p.-.<.>.3.k.k.l.6.5.k.<.Q F.F.F.,X&X;.i.P.-XP.Q.i.Q M.(.'.'.3X6X1Xa o                 ",
"              . O.F.*X;XS.u.(.1X5X1X'.).a.a.p.>.<.:.3.k.l.k.k.{.U.K.1.F.V.V.;X,X;.i.I.P.L.Q.i.!./.(./.'.2X5X2Xa .                 ",
"              $ n.F.;XnXD.f.(.1X3X].(.s.a.a.1.:.:.:.2.l.l.k.l.}.}.K.;.F.F.A.;X,XQ q.j.Q.Q.Q.i.^.].v.b.'.3X5X2Xp .                 ",
"              % C.G.,X,XG.f./.].].(.v.a.a.s.1.<.:.:.:.l.k.k.U.4X{.3.;.F.G.F.;X,XQ ,.i.P.L.Q.i./.(./.(.(.3X5X2Xp .                 ",
"              % C.F.;X,XF.u.c.(.(.).s.a.a.g.-.<.<.:.:.4.k.6.U.4X{.>.;.S.G.F.;X;X! q.,.m.I.Y.y./.'.(./.(.3X7X1Xd .                 ",
"              * } C.F.F.F.f.'.(.(.v.a.a.s.g.-.:.<.:.3.:.2.k.{.4X}.3.;.S.J.V.G.V.! ;.,.,.,.j.y.'.(.(.).)./.f.O.u                   ",
"              t } ..V.F.J.d.'.(.).s.a.a.a.g.-.:.>.:.:.:.:.2.U.}.U.5.,.S.G.F.F. .! ;.,.,.,.,.;.y.!.~.f.d.+.^ F e                   ",
"            o y F U ] .. .d.!.v.s.s.a.a.s.g.T -.>.:.:.:.:.:.7.4.6.3.;.S.A.C. .[ Y P R R R R I ] U U o.H L %.X.w                   ",
"            o t r 9 D o.o.U U ' | | ] ' ' U r r P P W -.-.>.<.<.<.-.W O.[ O.o.Y D 7 0 9 7 C Z Z C D C Z #.%.H *                   ",
"              O e 6 7 A H #.%.%.%.#.F @.#.X.q 6 5 5 7 r 0 0 D D F ^ o.@.L @.%.#.0 6 6 7 6 8 Z Z Z Z C A $.#.F %                   ",
"                % 9 7 8 H &.&.&.$.J S S S C 0 6 2 6 6 5 5 5 5 7 8 C Z Z S @.&.X.0 6 6 5 6 7 C A A A Z Z L F e O                   ",
"                  % e r 0 D H H S C C C 8 6 r 9 5 6 6 6 6 7 7 5 8 Z A A S @.X.D 3 4 4 6 6 6 6 8 8 8 C 0 q ; o                     ",
"                    - < t e w 2 2 2 4 & % % : 3 6 5 6 5 6 7 6 6 8 C C C C C q ; + + + & 3 3 4 3 3 3 * ; + .                       ",
"                          . . . . . . .     . o + & 9 5 2 5 6 6 5 2 5 6 2 % o                                                     ",
"                                                    . O + # % & % & : ; O                                                         ",
"                                                              . . . .                                                             ",
"                                                                                                                                  ",
"                                                                                                                                  ",
"                                                                                                                                  ",
"                                                                                                                                  "
};
