/* XPM */
static char *_d0428b5bac246f79736dcb971734933xwMpAsXxnWMhUlVr[] = {
/* columns rows colors chars-per-pixel */
"65 65 256 2 ",
"   c #000000",
".  c #01000C",
"X  c #0A050B",
"o  c #0A0908",
"O  c #120A0A",
"+  c #1B140C",
"@  c #030211",
"#  c #0B0B18",
"$  c #0E1319",
"%  c #171318",
"&  c #160A14",
"*  c #261C16",
"=  c #27180C",
"-  c #372816",
";  c #2E2918",
":  c #05042C",
">  c #151722",
",  c #050333",
"<  c #0A0234",
"1  c #08023A",
"2  c #150737",
"3  c #2B152E",
"4  c #30272C",
"5  c #10243B",
"6  c #5B1E06",
"7  c #631E06",
"8  c #592407",
"9  c #543212",
"0  c #67260A",
"q  c #78270B",
"w  c #66390B",
"e  c #792911",
"r  c #623D14",
"t  c #793A19",
"y  c #71360D",
"u  c #4D382A",
"i  c #552D31",
"p  c #365139",
"a  c #574717",
"s  c #75450E",
"d  c #684715",
"f  c #794917",
"g  c #695A17",
"h  c #775918",
"j  c #6F510D",
"k  c #6B650E",
"l  c #68670E",
"z  c #6B6514",
"x  c #6C6A12",
"c  c #6C641A",
"v  c #666617",
"b  c #736315",
"n  c #736B15",
"m  c #73631A",
"M  c #7C6C1C",
"N  c #796719",
"B  c #747515",
"V  c #757914",
"C  c #797A15",
"Z  c #75751A",
"A  c #7C731A",
"S  c #75791A",
"D  c #7A7C1B",
"F  c #797615",
"G  c #717513",
"H  c #504E31",
"J  c #684622",
"K  c #715723",
"L  c #6E502D",
"P  c #6C6A27",
"I  c #7A6624",
"U  c #6E7228",
"Y  c #757723",
"T  c #6B6A39",
"R  c #757635",
"E  c #6E6C38",
"W  c #5A6229",
"Q  c #180446",
"!  c #170552",
"~  c #23054B",
"^  c #230456",
"/  c #360B59",
"(  c #153455",
")  c #2F394D",
"_  c #30076A",
"`  c #0C3C6C",
"'  c #4A176F",
"]  c #582C5A",
"[  c #314B52",
"{  c #144868",
"}  c #074877",
"|  c #124770",
" . c #2C5670",
".. c #245463",
"X. c #4C4B57",
"o. c #695C49",
"O. c #6B6747",
"+. c #757342",
"@. c #736F54",
"#. c #767265",
"$. c #777378",
"%. c #6E6E6E",
"&. c #586365",
"*. c #843718",
"=. c #892D0E",
"-. c #9F3612",
";. c #854A0D",
":. c #8A530C",
">. c #864816",
",. c #885517",
"<. c #945918",
"1. c #944F0F",
"2. c #A94D15",
"3. c #8B670C",
"4. c #9B6606",
"5. c #9B660A",
"6. c #956A0B",
"7. c #99690A",
"8. c #976807",
"9. c #856918",
"0. c #9A6B14",
"q. c #86741B",
"w. c #99761A",
"e. c #94710F",
"r. c #A27416",
"t. c #AD6F17",
"y. c #885C23",
"u. c #955E25",
"i. c #AC5527",
"p. c #846826",
"a. c #946527",
"s. c #857826",
"d. c #9C7C23",
"f. c #977826",
"g. c #956B36",
"h. c #877932",
"j. c #876132",
"k. c #A47B26",
"l. c #A57639",
"z. c #AE6F2B",
"x. c #C87713",
"c. c #CE7128",
"v. c #8C764D",
"b. c #A06D61",
"n. c #C77943",
"m. c #7E831D",
"M. c #7B822E",
"N. c #798361",
"B. c #9A881D",
"V. c #8E9415",
"C. c #B2921C",
"Z. c #9BA416",
"A. c #A9A619",
"S. c #858429",
"D. c #9C8224",
"F. c #9A8628",
"G. c #939033",
"H. c #A48526",
"J. c #AB9427",
"K. c #B8972B",
"L. c #B0892E",
"P. c #99A634",
"I. c #B2AD2B",
"U. c #D48F12",
"Y. c #E39D0E",
"T. c #E39F1A",
"R. c #E8A40C",
"E. c #F6AB08",
"W. c #F5A517",
"Q. c #CDB02E",
"!. c #E5B832",
"~. c #D29D1B",
"^. c #B8C72B",
"/. c #C4C736",
"(. c #CED536",
"). c #D3D936",
"_. c #D1CE2E",
"`. c #E8D53A",
"'. c #F8D935",
"]. c #EDCC31",
"[. c #FAE72A",
"{. c #FBE535",
"}. c #D8E53D",
"|. c #8E8E4B",
" X c #AB8C56",
".X c #888B6E",
"XX c #BB9868",
"oX c #CC9646",
"OX c #D1AB51",
"+X c #C79A6D",
"@X c #D1A66E",
"#X c #EABA75",
"$X c #E0AB61",
"%X c #D6D44D",
"&X c #E9D746",
"*X c #E9D149",
"=X c #DBE54A",
"-X c #ECEB51",
";X c #D0CC6C",
":X c #EECA73",
">X c #EEEC6B",
",X c #DBE86D",
"<X c #58118B",
"1X c #60229A",
"2X c #07548E",
"3X c #316F91",
"4X c #0965AA",
"5X c #0F71B5",
"6X c #2A7AB2",
"7X c #0E62A0",
"8X c #467493",
"9X c #7B7887",
"0X c #7B7D91",
"qX c #0A7ECD",
"wX c #8B4C92",
"eX c #817A87",
"rX c #3883A4",
"tX c #7F8390",
"yX c #4987AA",
"uX c #13A9F4",
"iX c #2DAEEA",
"pX c #1C92D7",
"aX c #5CBADC",
"sX c #85878A",
"dX c #858B95",
"fX c #858A99",
"gX c #868895",
"hX c #919596",
"jX c #B28A8A",
"kX c #8F91A2",
"lX c #C5958E",
"zX c #E9B986",
"xX c #F6BB8C",
"cX c #F9BC95",
"vX c #E5AC88",
"bX c #F7BDA2",
"nX c #DFAA80",
"mX c #F6C988",
"MX c #F9C895",
"NX c #FBD698",
"BX c #EFC98D",
"VX c #F3EF93",
"CX c #FCDBA3",
"ZX c #F7CFB1",
"AX c #FCE7AA",
"SX c #FCEDB2",
"DX c #FBF6B5",
"FX c #F2F3A8",
"GX c #CECA92",
"HX c #FBDAC7",
"JX c #FCD6D0",
"KX c #FBE8D4",
"LX c #FAF6E7",
"PX c #F9FDF8",
"IX c #F6EDE7",
"UX c #CAD6DB",
/* pixels */
"                      . . . . . . . . . . . . . . . . . X # # > 4 4 ) 4 > > > $ X . . . . . . . . . . . . . . .                   ",
"              . . . . . . . . . . . . . . . . . . . ( rX .X.0XgX%.&.X.X.X.) [  .3X{ # @ @ . . . . . . . . . . .                   ",
". . . . . . . . . . . . . . . . . . . . . .   . + v @. .3XrX8X .[ [  . . . . ...[ H g - X . . . . . . . . . . . .                 ",
". . . . . . . . . . . . . . . . . . . . . . o W /._.I.S.I L H H H H H W K h 9.9.8.5.7.6.h = X . . . . . . . . . . .               ",
". . . . . . . . . . . . . . . . . . . . . % G.)._.I.w.D.D.d.f.f.f.f.f.F.f.d.f.0.7.7.4.4.5.w.a o . . . . . . . . . . . .           ",
". . . . . . . . . . . . . . . . . . @ . * ;X=X(.I.q.D.d.a.,.f s s y y s ,.w.w.w.7.8.4.4.4.7.0.d O . . . . . . . . . . . . . .     ",
". . . . . . . . . . . . . . . . . . . ; GX>X=XI.n B.d.,.>.u.k.I.%XQ. Xa.>.y :.e.8.8.8.6.7.0.0.,.r O @ . . . . . . . . . . . . . . ",
". . . . . . . . . . . . . . . . . X H GX>X=XI.M M s.,.;.H.%X>X>X-X>X>X>X%Xa.t :.3.3.,.,.:.;.;.;.<.r X . . . . . . . . . . . . . . ",
". . . . . . . . . . . . . . . . . 9 ;X>X-X/.M c h.p.y a.%X-X-X-X-X).`.&X-XOXy.s N N I y.,.:.:.:.:.0.9 X . . . . . . . . . . . . . ",
". . . . . . . . . . . . . . . . = I.-X=X(.V.k h.|.j.;.L.>X&X&X&X`.`.`.`.`.*X0.;.h b I g.<.,.,.:.:.1.t.8 X @ @ . . . . . . . . . . ",
". . . . . . . . . . . . . . . O n _././.Z.z M G.v.p.1.L.>X&X&X*X`.`.`.`.`.OX1.s h m h j.a.y.<.:.:.:.<.x.9 . . . . . . . . . . . . ",
". . . . . . . . . . . . . . . a Q.].Q.J.N h N p.9.m :.<.;X>XFXVX>X,XVX>X*Xk.;.j m m m j.a.a.a.<.:.:.,.<.k.4 @ . @ @ . . . . . . . ",
". . . . . . . . . . . @ . @ = Q.[.{.`.J.B.d.d.f.9.p.K ,.<.OX:XVXFXFXVX:XL.s f m n n b I g.a.a.u.,.,.,.1.[ 3X3X[ # @ @ . . . . . . ",
". . . . . . . . . .   .   o q.[.[.{.I.F.B.w.w.w.9.h.h.K ,.>.f z.K.K.k.,.,.y.h M q.A b K j.a.a.a.,.:.:.:.H 2X4X5XpX8X5 . . . . . . ",
". . . . . . . . . . . $ ( [ I.[.[._.C.B.B.w.w.9.p.|.|.h.M m I y.y.j.a.,.h N A q.A n b X.&.j.a.a.<.:.,.<.J | 2X7X4XpXaX3X# @ @ @ . ",
". . . . . . . . . $ 3XiXuX5XT ].'.A.B.D.d.w.e.3.s.S.S.s.q.q.q.9.I p.p.9.M A M n n N v 2X6X&.o.<.1.>.>.f f ) } } 2X4X5XiXyX> X @ @ ",
". . . . . @ . # ( aXuXuX5X{ u 2.2.2.2.2.i.i.0.<.<.,.N h h h h h h h f f f f f s f f J } 5XyX8XJ =.e q q 0 H { } } } 2X5XuXrX> . @ ",
". . . . . . # 3XiXuXpX2X` ( K >.0 7 7 7 0 0 L 0 =.e =.=.=.=.=.q f t e e q q q q q q 0 [ 7X6XyXX.9 0 w w t f p.o.[ | } } 4X6X) . . ",
". . . . . $ 3XuXuXqX2X` ` W _.`.J.f.9.h K K K d d d d d a r a r d r w w w w w d d d d p 2X4X6X3XT e.7.5.5.8.r.W.T.J # $ $ # X . . ",
". . . . @ ..iXpX4X} ` ( [ A.{.`.H.k.w.N Y Y S.S.m.D C C V D V D D D V V S S S V B V S W { 2X4X6X&.f.r.4.8.4.7.Y.E.9.X . . . . . . ",
". . . . X ( | ( ( 5 > a |.-X{.Q.H.d.q.s.S.S.V V V V V S V V S V V S V V V B V V V B V G p | 2X4X7XO.w.7.4.8.4.U.E.t.& . @ @ @ . . ",
". . . . . . . . @ . X E FX>X{.Q.d.k.q.s.G.D C C D V V S Y S Y Z V B B V V B V V B V V C G p { 2X4X .w.0.8.6.4.t.E.U.* @ @ @ @ @ . ",
". . . . . @ . . . . + ;XFX{.{.Q.d.d.9.G.S.D C D D V Y E %.$.$.%.O.P x x V V C V V V V V V v W [ 7X3Xs.w.6.0.0.5.R.R.9 @ . . . . . ",
". . . . . . . . . . - VX>X[.'.L.H.f.q.G.S.S F V V S @.9XgXgXgXfX0X#.P l P U U U S V V S Z z z W [ ..E w.8.r.0.7.Y.R.f X . . . @ . ",
". . . . . . . . . . J VX-X{.].H.d.w.b A Y V S S Y U $.gXfXgXtX0XtX9XO.o.%.9X9X$.#.T S V x n b z n h.f.r.6.7.5.4.Y.E.0.O . . . @ @ ",
". . . . . . . . . . s.-X[.'.!.H.d.f.s.D C V V S S U $.eX$.#.+.R R +.o.%.eXgXgXgXgXeXE B x c z z N d.d.k.0.7.5.4.Y.E.U.+ . . . .   ",
". . . . . . . . . . H.[.[.{.].H.d.q.S.D S U E T T T O.R V.V.V.Z.V.Z.V.m.+.$.gXfXfXfX@.B x z z z b f.d.w.0.7.5.4.Y.E.~.* .         ",
". . . . . . . . . . H.'.{.`.].D.d.q.s.Y O.%.9X9X9X#.Y Z.I.%X=X-X-X=X/.Z.V.R $.gXdXkX@.x z x z z b D.D.d.0.4.4.4.Y.E.Y.- .         ",
". . . . . . . . . . l.#X$XOXoXg.p.9.S.P $.gXgXdX9X+.V.I.-X-X-X-X=X=X=X=XI.V.@.9XhX.Xc z z x z c N F.D.d.0.7.8.4.R.E.R.9           ",
". . . . . . . . . . l.mXmXmX@Xg.y.h Y O.tXfXgXdX$.R V.(.=X}.}.).).).).).(.Z.M.@.E v l z z k z z M F.D.d.0.5.4.5.Y.E.~.-           ",
". . . . . . . . . . l.mXmXmX$Xa.<.,.Y T dXfXdXgX9XS.A.(.(.).(.(.(.(.).).(.Z.G.#.@.T l z l x z z M F.k.w.0.4.4.5.Y.E.C.+           ",
". . . . . . . . . . j.mXmXMX#Xg.<.,.s.Z .XhXgXgXeX|.Z./.).,X,X%X%X%X=X).^.Z.|.9X0X$.O.z l z z z M F.w.e.6.8.8.5.R.~.O.o           ",
". . . . . . . . . . J :XmXmXBXl.u.,.S.C U v.sXhXsX#.G.Z.^.,XFXDXDXFX,X^.V.|.$.gXgXdX#.l z z x z m s.e.6.6.:.3.3.J.v.&.o           ",
". . . . . . . . . . u mXmXmXmX Xa.h s.D V S Z Z U O.$..XP.Z.I.^./.^.Z.P..X$.tXdXgXgX@.z c k z c h 9.e.q.s.p.I N G.N.%.O           ",
". . . . . . . . . . - #XmXmXmX Xa.h M D V x S V Z @.tXgXsX.X|.P.|.|.|.sXsXgXdXgXgX.XP z z z v g F s.q.M m I I 9.G.N.%.o           ",
". . . . . . . . . . O oXmXmXmX+Xg.h s.S.V V B S U @.gXfXfXfXdXgXdXhXO..XhXkXkXhX.XE c z z z z l q.q.9.m m m h s.G..X%.o           ",
". . . . . . . . . . X g.#XmX:X@Xg.,.s.S.Z S V Z Z O.sXgXdXdXdXfXkX.Xc z P E R P c z c z z k l z 9.q.q.m m b b D.A.|.#.o           ",
". . . . . . . . . . . r oX$X:X#Xl.y.p.S.Z B V Z S Z +..XdXhXkXhX.XR B B n n G n n x z z l l z v I q.M m m b b C.L.l.o.o           ",
". . . . . . . . . . . = z.z.n.$Xl.a.,.s.A S B S Z Z S S U R R U S S B B G x x x x z z z l l z g I m h h h <.i.c.n.i.9             ",
". .   . . . . . . . . & f =.-.-.=.-.2.i.i.i.>.f f h g g g b c c z c z z z x c c c g g g h f f t t t e q e e q =.;.s +             ",
". . . . . . . . . . . @ a t.2.=.q 0 0 L 0 q q =.=.*.*.*.t y *.*.>.*.*.*.*.t f t t t *.*.=.e e t 8 6 8 8 8 9 s r.J.K X             ",
". . . . . . . . . . . . * Q.].].!.t.;.s s y w 0 0 8 8 8 8 8 7 7 8 7 0 0 0 8 9 6 6 8 7 8 8 8 9 r d j h K m N J.I.F.; .             ",
". . . . . . . . . . . . @ y.].'.'.Q.D.w.w.w.w.d.9.h n x x z z l l z g v g g g g g c z l z b N I N b b m b n C.K.9 X .             ",
". . . . . . . . . . .   @ = Q.'.[.].J.F.F.F.d.k.f.3.s.D C C V V V F C F F A A n z z z z z M q.9.N b b m I q.K.h.& . . .           ",
". . . . . . . . . . . . . X J ].[.[.J.F.H.d.d.d.r.3.A D C V V V V V V S S A Z x z z z z z s.s.s.s.I m g h r.C.u . . . . .         ",
". . . . . . . . . . . . . . + K.'.[.I.F.D.d.w.0.0.3.A D F V V V V D V S S n x x z z x c c n n I c g h f 1.x.z.% @ . . . . . .     ",
". . . . . . . . . . . . . . . 9 !.{._.J.D.k.d.w.7.3.M D V S D V V V F V n x x x z z z z z z l l z g ,.<.x.U.r @ @ @ . . . . . . . ",
". . . . . . . . . . . . . @ @ X N ].].K.d.d.d.w.7.7.9.D V C A F V B x x z z z z z z z l z z z v z g <.x.U.l.+ @ @ @ . . . . @ @ . ",
". . . . . . . . . . . . . . . . O g Q.Q.F.D.w.0.7.7.3.B V S n n x x z z z z z z z z z z z z x x k j t.c.y.* X . . @ @ . . @ > 5 @ ",
". . . . . . . . . . . . . . . . . X ' wX] i J f ,.,.h z z x z x k x x x z z z c v v v v v g g a a 4 4 3 X   . @ . @ . @ @ # &.UX> ",
". . . . . . . . . . . . . . . . @ 2 1X1X_ _ ^ Q 2 > % % * 3 4 4 4 4 4 4 4 ; 4 3 3 3 3 2 ~ ~ 2 < : , , 1 : .   @ . @ . . . @ # > . ",
". . . . . . . . . . . . . . . . @ Q _ _ _ ! Q 1 , : : < ~ <X' ~ ~ ~ ~ Q 1 < < , < 1 Q ! Q Q < : : : , , : @ . @ . . . . . . . . . ",
"                    . . . . . . @ 2 ! Q 1 1 , 1 1 1 < Q ' ' ^ ~ ^ ~ ! Q 1 < 1 , , : < , < < < < < , 1 Q ! : . . . . . . . . . . . ",
"                                . % 4 ] ] ' ' <X<X<X<X_ _ ~ ! ~ ~ Q Q < 1 , < , < , < Q _ _ _ _ _ ' ' ' 3 @ . . .         . . . . ",
"                                  o - H +. X+XnXBXZXZXX.^ Q Q 1 1 1 , < , , , 1 < Q ~ b.lXeXb.b.j.T H - O                         ",
"                                    o - v. X@XxXCXSXDXGX%./ / ^ ^ ^ ^ ^ ^ _ ' <X<X] jXSXAXMXvX+X XE ;                             ",
"                                        H  X@XxXNXAXDXSXNXxXvXlXeXwXwXwXwXb.b.+XzXNXSXDXAXMXzX+Xv.+                               ",
"                                          v.@XBXNXSXDXAXNXMXxXcXZXLXPXPXIXHXMXcXMXCXSXDXAXMXzXXX*                                 ",
"                                          H +XzXNXAXSXAXMXxXcXMXZXLXPXPXLXHXcXxXmXNXSXSXCXBXzXH                                   ",
"                                          + +X#XMXCXAXCXNXMXcXbXJXIXPXPXLXHXMXcXMXNXSXSXCXzX+X+                                   ",
"                                          O  X@XxXMXNXNXMXcXxXbXHXIXPXPXLXJXZXcXMXNXAXAXNX#X X                                    ",
"                                            o L @XmXNXNXBXmXxXcXZXKXLXPXLXHXZXcXMXNXNXNXmXXX-                                     ",
"                                                O v.:XmX:X:X#XxXMXZXKXKXKXZXbXcXMXMXzXO.+                                         ",
"                                                    * L XX#X#XzXcXZXHXHXHXZXcXxXmXv.o                                             ",
"                                                          O u H L v.jXlXv.u * + O                                                 "
};
