/* XPM */
static char *_8e1b4c130604115b23b5168558748251JB5AHVaBwYGsd4k[] = {
/* columns rows colors chars-per-pixel */
"65 65 253 2 ",
"   c #010105",
".  c #01010D",
"X  c #0B020B",
"o  c #070607",
"O  c #160508",
"+  c #010011",
"@  c #0A0413",
"#  c #0B0B14",
"$  c #04061A",
"%  c #06091B",
"&  c #0B0C1C",
"*  c #060914",
"=  c #140A15",
"-  c #0C1219",
";  c #16151A",
":  c #0F160B",
">  c #291718",
",  c #2B1312",
"<  c #142614",
"1  c #3E221D",
"2  c #2B2D17",
"3  c #0B0C23",
"4  c #0E1227",
"5  c #121323",
"6  c #17192A",
"7  c #1A1D34",
"8  c #141730",
"9  c #291D25",
"0  c #3B1822",
"q  c #1C2238",
"w  c #1C2629",
"e  c #272528",
"r  c #372728",
"t  c #252738",
"y  c #2E313A",
"u  c #353938",
"i  c #392D33",
"p  c #49302B",
"a  c #502520",
"s  c #3D453D",
"d  c #314B2E",
"f  c #454937",
"g  c #544E36",
"h  c #665E2D",
"j  c #516C30",
"k  c #737337",
"l  c #68621A",
"z  c #282B44",
"x  c #2C3246",
"c  c #363849",
"v  c #373B54",
"b  c #1E1D41",
"n  c #453B47",
"m  c #703143",
"M  c #3B4348",
"N  c #3C4459",
"B  c #3E4862",
"V  c #454646",
"C  c #474956",
"Z  c #555458",
"A  c #505453",
"S  c #556657",
"D  c #6E6D4A",
"F  c #464A66",
"G  c #4A516B",
"H  c #565869",
"J  c #4D5471",
"K  c #575B77",
"L  c #464775",
"P  c #5C617B",
"I  c #566274",
"U  c #666978",
"Y  c #717370",
"T  c #7E404F",
"R  c #857D37",
"E  c #993F55",
"W  c #945A6D",
"Q  c #6AB332",
"!  c #5B9B38",
"~  c #70C526",
"^  c #14904D",
"/  c #0C9753",
"(  c #179658",
")  c #139052",
"_  c #228F53",
"`  c #2D955E",
"'  c #298E69",
"]  c #2B9763",
"[  c #389A67",
"{  c #358F70",
"}  c #34A76A",
"|  c #1AA15C",
" . c #5D9442",
".. c #62944E",
"X. c #479C75",
"o. c #4C916E",
"O. c #6D8F6F",
"+. c #49A879",
"@. c #52A776",
"#. c #6EB067",
"$. c #A79C35",
"%. c #ADAC3F",
"&. c #CAB939",
"*. c #EDD814",
"=. c #FDEE03",
"-. c #FBEA0A",
";. c #FDF104",
":. c #F9F00A",
">. c #FAEC17",
",. c #F7EE1B",
"<. c #DCD53C",
"1. c #D5C938",
"2. c #E8DB39",
"3. c #E7D529",
"4. c #EDE627",
"5. c #F6E827",
"6. c #E7E33A",
"7. c #F4E234",
"8. c #919046",
"9. c #B6AE51",
"0. c #8B8F74",
"q. c #ADAF71",
"w. c #9AA168",
"e. c #C7BB4E",
"r. c #C1BC67",
"t. c #CDC948",
"y. c #CBC559",
"u. c #D4CE4C",
"i. c #D0CB6E",
"p. c #E5E142",
"a. c #575B81",
"s. c #5A6584",
"d. c #656986",
"f. c #7B7B84",
"g. c #6A7496",
"h. c #737997",
"j. c #6B738F",
"k. c #AB7C8E",
"l. c #807F88",
"z. c #768E8D",
"x. c #5AAB8B",
"c. c #56B488",
"v. c #6CAF8F",
"b. c #7C86A5",
"n. c #529B87",
"m. c #6CC593",
"M. c #858987",
"N. c #8A8C98",
"B. c #8F9691",
"V. c #92AF90",
"C. c #B0B393",
"Z. c #8289A9",
"A. c #999CA8",
"S. c #8B98B8",
"D. c #8F96AF",
"F. c #96A4BB",
"G. c #95B2AF",
"H. c #A9ADAA",
"J. c #A9B7A7",
"K. c #A7A9B7",
"L. c #AAB5B9",
"P. c #B3BBB7",
"I. c #B5B5AA",
"U. c #A49EAF",
"Y. c #CAA5A4",
"T. c #90C89B",
"R. c #B8C18A",
"E. c #96D8B8",
"W. c #91CAB2",
"Q. c #AACCB9",
"!. c #9CE3BC",
"~. c #ACE3BF",
"^. c #D0CE91",
"/. c #CCD2B6",
"(. c #E3E5B7",
"). c #939EC4",
"_. c #95A3C4",
"`. c #9AA4C3",
"'. c #9DAACC",
"]. c #98A7CA",
"[. c #9DADD2",
"{. c #9DB2C5",
"}. c #A3AECC",
"|. c #A6AEC3",
" X c #A8B7C8",
".X c #B4BCCC",
"XX c #B5BAC4",
"oX c #A4B3D3",
"OX c #A9B6D3",
"+X c #ADBBD4",
"@X c #A6B5DA",
"#X c #ACBBDC",
"$X c #A9B7DA",
"%X c #B1BDDC",
"&X c #B4BDD4",
"*X c #A3AFD2",
"=X c #AEBDE2",
"-X c #B2BEE2",
";X c #B2BFEA",
":X c #C2BCCA",
">X c #E7BCCB",
",X c #ACC7C6",
"<X c #BAC4CA",
"1X c #AEC1DA",
"2X c #B3C3DC",
"3X c #BBC6DB",
"4X c #B8C5D5",
"5X c #AAD5C8",
"6X c #B5ECCC",
"7X c #B2E7CE",
"8X c #AFC2E2",
"9X c #B4C4E4",
"0X c #B9C3E3",
"qX c #B4C4E9",
"wX c #BCC9E4",
"eX c #BDC5F2",
"rX c #C6C9CA",
"tX c #C6CBD7",
"yX c #CDD3DC",
"uX c #C6D5D7",
"iX c #D2D5DB",
"pX c #D8D7DA",
"aX c #D0D7C9",
"sX c #D9E7DA",
"dX c #CAEBD3",
"fX c #E8ECCD",
"gX c #C4CDE4",
"hX c #C9D5E7",
"jX c #D4DAE2",
"kX c #D6DBE6",
"lX c #CAD8F2",
"zX c #D4DBF1",
"xX c #DCE3EC",
"cX c #D8E4E6",
"vX c #DCE5F1",
"bX c #DAE6F3",
"nX c #D4F5E5",
"mX c #E2E5EB",
"MX c #E4E8EA",
"NX c #E7F6E9",
"BX c #E5ECF4",
"VX c #EAEDF3",
"CX c #E4E8F5",
"ZX c #ECF2F5",
"AX c #ECF3FB",
"SX c #E8F7F8",
"DX c #F2F4F6",
"FX c #F3F5FB",
"GX c #F5FBFD",
"HX c #FAFBFD",
"JX c #F8F8F8",
"KX c #F1FAE8",
"LX c #EBD0DD",
/* pixels */
"+ + + + + + + + + + . . . . . . . . .   . # . . . . . + + + + + + + + + + + + + + + + + + + . . . . . . + . . . . * y Z c ; . .   ",
"+ + + + + + + + + + . . . . . . . . . . e A ; . . . . . + + + + + + + + + + + + + + + + + + . . . . . . . . . . . . # ; - . . .   ",
"+ + + + + + + + + + . . . . . . . . . . t Z 6 * . . . . + + + + + + + + + + + + + + + + + + . . . . . . . . . . . . . . . . . .   ",
"+ + + + + + + + + + + + + . . . . . . . # 6 * . . . . . . + + + + + + + + + + + + + + + + + . . . . . . . . . . . . . . . . . .   ",
"+ + + + + + . . . . . + + . . . . . . . . . . . . . . . . . + + + + + + + + + + + + + + + + . . . . . . . . . . . . . . . . + .   ",
"+ + + + + . . . . . . . . . . . . . . . . . . . . . . . . . . + + + + + + + + + + + + + + + . . . . . . . . . . . . . . + + . .   ",
"+ + + + . . . . . . . . . . . . . . . . . . . . . . . . . . . + + + + + + + + + + + + + + + . . . . . . . . . . . . . + + + . .   ",
"+ + + + . . . . . . . . . o X o o . . . . . . . . . . . . . . + + + + + + + + + + + + + + + . . . . . . . . . . . . . . + + . .   ",
"+ + + + . . . . . .   o o X = X o   . + . . . . . . . . . . . + + + + + + + + + + + + + + + . . . . . . . . . . . . . . . . . .   ",
"+ + + + . . . . . .   o O > r = o o . + . . . * . . . . . . . + + + + + + + + + + + + + + + . . . . . . . . . . . . . . . . . .   ",
"+ + + + + + + . . o o O > p g 1 O o . + . o < < < :   . . + + + + . . . . + + + + + + + + + + + + + + + + + + + . . . . . . . .   ",
"+ . . . + + . X X = > 1 1 a a p O O . * < d  . .! j 2 o . + . . . . . . . . + + + + + + + + + + + + + + + + + + + . . . . . . .   ",
". . . . . . . X = 9 r > , 1 , r > = ; w s  .Q ~ ~ Q j < & * . . . . . . . . . . . . + + + + + + + + + + + + + + + . . . . . . .   ",
". . . . . . . X 9 r > > > > > p n C I U O...Q ~ ~ Q ..S N t 5 % + + . . . .     . . + + . + + + + + + + + + + + + . . . . . . .   ",
"+ . . . . . . # r r > > 9 r C Y A.K.P.L.z...! Q Q Q O.B.D.g.J x 6 & + . . . .   . . + + + + + + + + + + + + + + + . . . . . . .   ",
"+ + . . . . . @ 9 e > i A f.A.XXjXmXBXjXJ.z... . ...z. X#X@X_.Z.K c 4 % $ * . . . . + + + + + + + + + + + + + + + . . . . . . .   ",
"+ + . . + + + . @ ; u f.XXmXBXBXvXxXVXZXjX<XV.B.z.V. X2XqX9X-X$X].Z.J v z 7 % + + + + . . + + + + + + + + + + + + . . . . . + .   ",
"+ + . . . + @ @ 5 V f.rXVXFXGXGXAXmXmXZXVXjX<X X X+X1X2X#X@X}.'._.S.Z.b.b.K t 3 $ + + + . + + . + + + + + + + + + . . . . + & #   ",
". . X X @ = = 9 H A.yXFXHXHXHXHXGXGXmXcXZXBXyX2X#X#XoX].F.`.`.[.$X#X-X-X%X}.j.F 7 $ + + + . + + + + + + + + + + + . . . . & x y o ",
". . o O > i n Y K.jXAXGXGXHXJXHXHXHXVXkXmXBX3X}._.].[.oXoXoX$X2X8X9X9XqX0X-X`.Z.J 7 $ + + . + + + + + + + + + + + . . . . + 5 ;   ",
". o O 0 m W k.:XjXZXGXHXHXHXHXHXJXDXVXiX<X.X|.'.@X=X=XoX'.`.].@X2X2X2X9X9X9X2XOXh.x % + . . + + + . + + + + + + + . . . . . + .   ",
". o , m E W Y.pXBXGXJXHXHXHXGXGXFXMXtXXXXX.X+X-X;XqX8X{.1X%X*X[.#X2X2X9X9X9X2X1XS.B 4 *     . + + . + + + + + + + . . . . . . .   ",
". . 0 T W Y.LXpXZXHXHXHXGXFXVXkXrXrXiXMXCXkX3X0X9X9X+X{.gXlX9X'.#X2X9XqXqX9X2X2X}.d.q + . . + + + . . + + + + + + . . . . . . .   ",
"+ X p W k.>XLXmXFXGXJXFXVXkXyXrXpXMXZXJXFXCXtX3X2X2X1X{.9XqX@X[.+X4X1X4X.XXXP.P.K.f.t $ + . + + .   . . + + + + + . . . . . . .   ",
"+ @ i W Y.LXpXZXGXJXZXpXrXtXjXVXDXJXHXHXHXAXhX4X2X9X8X@XoX].`.OXXXP.J.C.C.q.q.q.w.Y e @ . . . + .   . . + + + + + . . . . . . .   ",
"@ + t N.pXMXcXZXZXmXrX<XiXBXFXGXHXHXHXHXGXFXkX3X9XqXqX%X.XL.I.C.C.q.9.e.u.t.t.t.9.h > . . o . . . . . . . + + + . . . . . . . .   ",
"+ @ n K.mXxXcXMXiXrXtXyXkXBXFXGXHXHXHXGXGXGXzXwX9X;X-XXXJ.q.q.r.y.u.p.6.4.4.*.3.&.R 2 = .   . . + . . . . . . . . + + + + + . .   ",
"+ @ U yXBXcXuX<XrXiX<XXXL..XkXAXGXGXGXGXAXAXhX4X+X XF.V.q.u.p.4.5.,.,.>.:.=.-.*.3.9.D V 6     . + . + . . . . . . + + + + + . .   ",
". & A.mXvX<X<XpXMXyX<XtX.XK..XxXGXGXSXBXcXuX,X X X<XQ.C.i.6.5.:.;.;.=.=.=.=.-.*.3.e.q.N.F - . + @ . . . . . . . . + + + + + . .   ",
". t K.jXtXtXmXJXVXyX3XzXtX|..XxXAXBXjX4X,X X,XuXnXZXNX^.y.2.5.:.;.;.=.;.=.=.>.*.1.e.C.|.Z.G t @ + . . . . . . . . + + + + + . .   ",
"* c U.:XyXBXHXHXFXjX<XgX&X X4XbXxXuX,XG.W.5X7XnXNXNXKXfXi.<.7.>.:.;.;.;.;.:.,.3.&.q.I. X*XD.H 5 + . . . . . . . . + + + + + . .   ",
"8 H XXxXZXGXGXHXHXVXyX.XXX4XgXgX.X XG.v.+.+.c.v.W.dXnXKX(.y.2.,.:.;.=.-.-.>.3.t.^./.<X3XzX4XN.t * . . . . . . . . + + + + + + .   ",
"H K.MXGXGXHXHXHXHXHXAXxXiXrXXXH.L.Q.x.] ( ( ( ( [ m.6XNXfXi.u.5.>.;.=.>.5.3.t.i.aXiX.X&XlX2XZ.t . . . . . . . . . + + + + + + .   ",
"A.mXGXHXHXHXHXHXGXFXAXhX<XJ.C.C.Q.T.] ) / / / / / ] v.dXKX^.y.7.>.=.:.5.<.y.^.fXzXgX+XoX@X`.d.5 . . . . . . . . . + + + + + + .   ",
"XXDXGXGXHXHXHXGXBXcXtX XG.V.C.R.T.#._ ( } +.} | / ^ ` E.nX(.r.7.5.,.3.<.i./.sXhXeX0X-X#X$X).G 3 + . . . . . . . . + + + + + + .   ",
"XXZXGXGXHXHXFXBXhX,XG.W.Q.T.V.V.V.o._ +.W.E.E.m.} ^ _ v.dXfXr.2.7.6.t.i./.sXhXwXqX0X0X9X-X).F & + . . . . . . . . + + + + + + .   ",
"XXZXGXGXGXAXbX3XG.v.n.n.+.c.v.#.@.[ X.!.dXaXdX6XE.` _ +.6XdXR.i.u.y.^.fXjX3X2X2X2X-X#X@X'.j.t $ . . . . . . . . . + + + + + + .   ",
"K.BXGXAXBXhX4XG.v.{ ( ( ( _ [ X.X.{ x.5XO.V S J.7Xv.` [ 7X/.C.q.^.(.sXyX}.`.}.+X%X'.S.b.g.v 3 . .   . . . . . . . + + + + + + .   ",
"K.bXAXxXtXXX X5Xx.' / / ( ] ] ' ' { x.G.M < : A Q.W.X.X.E.P.I.aXcXvXwX}.OXOX'.}.'.).S.b.g.F 4 . . . . . . . . . . + + + + + + .   ",
"A.kXvXuXL.K.uX7X+.) / ( } c.c.+.{ { X.V.O.A : e B.W.X.X.G.<XpXvXbXgX%X}.lXlXOX].).].S.h.g.K 7 + . . . . . . . . . + + + + + + .   ",
"H K.tXL.A.P.nX7X[ ^ ( c.!.!.v.o.o.o.O.V.J.M.; ; z.G.v.G.7XbXvXhXwX3X&X|.hXgX@X_.S._.S.g.g.K 7 @ . . + + . . . . . + + + + + + .   ",
"6 H A.A.A.P.sX6X[ ^ ] !.dXJ.V w d S O.w.0.A < y z. X4XcXbXzXgX0X9X9X%XOX}.}._.F.S.S.S.g.g.P 8 * . . + + . . . . . + + + + + + .   ",
"+ 6 C H M.H.sX6X@.) [ 6XsXA.V ; : d w.R.w.Y S M.<XbXbXbXhXgX0XqXqXqX9X2XoX'._.).'._.S.g.g.d.7 * . . . . . . . . . + + + + + + .   ",
"+ + % 5 A B./.dXT.` [ 7XnXaXH.U : < 0.C.C.P.yXBXbXzXgX3X3X2X0XqX9X9X9X-X@X_.'.$X-X#X_.s.a.d.z $ . . . . . . . . . + + + + + + .   ",
". + * * y Y J.sX~.@.{ E.nXNXaXY e u M./.aXsXvXxXhXwXwX2X9X9X0X9X9XqX#XoX].'.#X9XqX-XS.F F j.N & . . . . . . . . . + + + + + + .   ",
". + + . ; A B./.dXE.o.x.5XsXrXA.M.H.pXMXcXjXgXwX9XqX9X9XqXqXqX9X-X$X'.].[.=XqXqXqX@Xg.q z P H 4 + . . . . . . . . + + + + + + .   ",
". + + * 5 A 0.H.rXdXW.n.V.P.rXpXMXVXVXyX|.F.+X9X9XqXqX9XqXqX9X=XoX].].$X=X9XqXqX=XS.B 3 4 J h.t $ + + . . . . . + + + + + + + .   ",
". . + $ t l.H.H.P.Q.Q.,XuXNXZXDXJXGXxX.X&XOX'.@XqXqXqXqXqX=X$X].].oX-X9X9X9X2X9X`.P 7 $ % x d.N 8 $ + . . . . . . + + + + + + .   ",
". . + $ y N.pXMXMXMXNXSXSXFXGXHXJXFXhX4XlXgXoXoX;XqX9XqX#X[.].].[.=X9X9X9X#X+X+Xb.v & + + 8 G K v 7 % * . . . . . + + + + + + .   ",
". . @ + 6 U tXDXGXGXJXGXHXGXGXHXJXGXjX4XhXwXoXoX=X=X#XoX'.oX@X#X@X#X-XoXZ.j.j.j.C 6 $ . * & z h.b.d.c t & * . . . + + + + + + .   ",
". . + + 3 C K.VXGXHXHXHXHXGXGXGXJXJXMXrX.X|.'.@X@X[.'.oX#X=X=X9X#X#X@Xb.J N C C M e - . . $ t d.Z.Z.U H t @ . . + + + + + + + .   ",
". . + + & C N.iXAXGXHXHXHXGXGXHXJXJXFXxX3XOX'.'.'.[.@X#X9XqXqX9X#X@X_.s.N M f D k g 2 X . * x a.g.h.J M 6 + . . . + + + + + + .   ",
". . . + % t U A.yXAXGXHXHXHXJXGXDXZXmXjX&X}.'.oX@X8X9X9X9XqXqX0X%X}.F.K N M h 9.e.$.h , o - M J L a.v 5 $ . . . . + + + + + + .   ",
". . . . * & y Z N.yXVXFXFXFXVXmXiXtXXX|.}.OX#X9XqXqXqX9X9XqXqXqX%X}.D.K v s k y.p.<.$.2 : - y z b F c & . . . . + + + + + + + .   ",
". . . + + + * & t U K.XXK.K.L.XX<X4X&XOXOXOX#X9XqX9X9X9X9XqX9X+XL.B.0.Z M u k t.5.5.1.l 2 X # * + 6 3 . . . . . . + + + + + + .   ",
". . . . + + * . * 6 x x c G N.XXjXbXzXhX2X+XoX@X#X9X=X#X#X$XoXG.V.q.9.R f u h %.4.,.2.R p # * . . + . . + . . . . + + + + + + .   ",
". . . . + + . . . . * % % 5 t C f.A.4XhXgXwX#XOX}.'.F.S.Z.b.g.Y w.t.1.$.g f f k 1.6.u.R f # . . . . . . . . . . + + + + + + + .   ",
". . . . + + . . . . . . + + * # 6 y G h.S.F.S.b.b.j.s.J G G N A 8.e.1.&.k s s f k $.8.h u # + + + . . . . . . . . + + + + + + .   ",
". . . . + + . . . . . . . . . . . * 8 K b.b.G x q 7 8 4 7 c v c g R 9.9.D s M c V g g s y * + + + + . . . . . . . + + + + + + .   ",
". . . . + + . . . . . . . . . . . + 8 d.D.b.G q 3 % + + & t v v n g D D g M c v v c c y w * + + + + + . . . . . . + + + + + + .   ",
". . . . + + . . . . . . . . . . + + z j.Z.h.P N q + + + + 5 t x c c V V M x q t c c x 6 & + + . . . + + . . . . . + + + + + + .   ",
". . . + + + . . . . . . . . . . + 3 F d.h.d.G G x % + . + $ & q x c N N c q & & 5 5 5 $ + + + . . . + + . . . . . + + + + + + .   ",
". . . + + + . . . . . . . . . . + 5 F F P P z t 6 $ + . . + @ & 6 y H Z t & * * * * + + + . + + . + + + + + + + + + + + + + + .   ",
"- . + + + . . . . . . . . . . . + $ 6 8 C K 7 $ + + . . . . + . + - c y * . . . . . . . . . + + + + + + + + + + + + + + + + + .   ",
"u ; . + + . . . . . . . . . . . . + % $ t v 4 + + . . . . . . + + . $ $ . . . . . . . . . . + + + + . + + + + + + + + + + + + .   "
};
