/* XPM */
static char *_56982ba6260401f99965d61d739bf84I21PB6MvOzEjsTAr[] = {
/* columns rows colors chars-per-pixel */
"65 65 245 2 ",
"   c #040405",
".  c #01010D",
"X  c #09070A",
"o  c #1A0909",
"O  c #010010",
"+  c #090915",
"@  c #040519",
"#  c #0B0B1B",
"$  c #080615",
"%  c #0D1216",
"&  c #181819",
"*  c #110E10",
"=  c #251617",
"-  c #341A18",
";  c #290D0E",
":  c #152811",
">  c #252416",
",  c #0B0C21",
"<  c #090A24",
"1  c #0E1228",
"2  c #13152A",
"3  c #1A1B2D",
"4  c #151625",
"5  c #1B1C34",
"6  c #161A33",
"7  c #110E25",
"8  c #27182A",
"9  c #1D2035",
"0  c #392528",
"q  c #262739",
"w  c #363A39",
"e  c #2E302C",
"r  c #4D241B",
"t  c #4C322C",
"y  c #4D3335",
"u  c #633927",
"i  c #552419",
"p  c #3A463B",
"a  c #484619",
"s  c #464738",
"d  c #545831",
"f  c #656639",
"g  c #736F33",
"h  c #546F2B",
"j  c #262942",
"k  c #393D4C",
"l  c #363A48",
"z  c #3A3D53",
"x  c #353C56",
"c  c #2C3047",
"v  c #4A3F52",
"b  c #394247",
"n  c #3A4459",
"m  c #3D5142",
"M  c #3C4464",
"N  c #43454A",
"B  c #464859",
"V  c #4E5854",
"C  c #6B6B4E",
"Z  c #454A66",
"A  c #545868",
"S  c #565A75",
"D  c #4B516C",
"F  c #59627C",
"G  c #596E68",
"H  c #666A68",
"J  c #676978",
"K  c #74767D",
"L  c #6A7969",
"P  c #802A34",
"I  c #8C5137",
"U  c #903246",
"Y  c #C33856",
"T  c #9D4B61",
"R  c #A55A6E",
"E  c #C1435A",
"W  c #6EB536",
"Q  c #5A9C2E",
"!  c #72C430",
"~  c #6BD113",
"^  c #0A954C",
"/  c #06984B",
"(  c #168D54",
")  c #0A9451",
"_  c #089952",
"`  c #179457",
"'  c #0F8E51",
"]  c #279056",
"[  c #299965",
"{  c #3A9968",
"}  c #308D6F",
"|  c #34A56D",
" . c #1F9864",
".. c #5A874F",
"X. c #659A46",
"o. c #6FA24B",
"O. c #4D937A",
"+. c #698F70",
"@. c #45AA76",
"#. c #938B30",
"$. c #B3A92A",
"%. c #A09E3B",
"&. c #C6B839",
"*. c #EED310",
"=. c #FDEF05",
"-. c #FCEC0B",
";. c #FAE80E",
":. c #FCF104",
">. c #FEF10A",
",. c #FAEB18",
"<. c #D7CB35",
"1. c #D9C92E",
"2. c #E4D32D",
"3. c #F6EA25",
"4. c #EDE537",
"5. c #F5E834",
"6. c #BEB646",
"7. c #B4AE53",
"8. c #92936F",
"9. c #96A774",
"0. c #B7B576",
"q. c #ADAC6D",
"w. c #959257",
"e. c #C2BB48",
"r. c #C6BC5D",
"t. c #D3CC49",
"y. c #E5DA4D",
"u. c #EDE752",
"i. c #D4D178",
"p. c #5D6687",
"a. c #646B89",
"s. c #67728A",
"d. c #707489",
"f. c #6C7392",
"g. c #6A759A",
"h. c #727996",
"j. c #626E93",
"k. c #747EA2",
"l. c #8F7A86",
"z. c #4B9584",
"x. c #7A829B",
"c. c #76998E",
"v. c #5AB78C",
"b. c #4DAA82",
"n. c #69B08F",
"m. c #7A87A7",
"M. c #6FAEA7",
"N. c #6CC191",
"B. c #79D2A0",
"V. c #86849B",
"C. c #979C95",
"Z. c #8D948E",
"A. c #93AE92",
"S. c #A8AB9B",
"D. c #B1B08B",
"F. c #858BA9",
"G. c #8B92A6",
"H. c #999AA8",
"J. c #848CB2",
"K. c #8C9BBD",
"L. c #8895B7",
"P. c #939CB7",
"I. c #98A5B9",
"U. c #98B0B8",
"Y. c #91AEAB",
"T. c #A6A9A9",
"R. c #A6AAB8",
"E. c #A9B4B9",
"W. c #B2B6BD",
"Q. c #B5BBB8",
"!. c #ADB4A9",
"~. c #D0AC9C",
"^. c #92D0B3",
"/. c #B0CAB6",
"(. c #A6DAAE",
"). c #D0D1B1",
"_. c #D9CC86",
"`. c #939DC2",
"'. c #8E9DC1",
"]. c #94A2C4",
"[. c #9DAACC",
"{. c #9AA7C7",
"}. c #9EACD1",
"|. c #98B3C6",
" X c #A3B2CE",
".X c #AAB7C7",
"XX c #B4B9C6",
"oX c #A2AED2",
"OX c #A4B3D4",
"+X c #ACBBDC",
"@X c #AAB7D7",
"#X c #B5BED5",
"$X c #A5ACC3",
"%X c #AFBEE1",
"&X c #B1BFE2",
"*X c #D5BAC7",
"=X c #BBC1CA",
"-X c #AEC3D9",
";X c #B4C3DD",
":X c #BAC3DC",
">X c #B9C7D7",
",X c #AFD2CB",
"<X c #B5EDCB",
"1X c #B9ECD8",
"2X c #AEC2E2",
"3X c #B4C3E5",
"4X c #B9C4E3",
"5X c #BCCAE3",
"6X c #B5C5E9",
"7X c #B7C6E8",
"8X c #BFD1E7",
"9X c #C5C8CC",
"0X c #C6CAD9",
"qX c #CCD4D9",
"wX c #D4D8DB",
"eX c #D1D4CE",
"rX c #C8F4DB",
"tX c #CFECD6",
"yX c #E8EADC",
"uX c #ECF3D6",
"iX c #CBD3E3",
"pX c #C9D7E8",
"aX c #D6DCE6",
"sX c #CBD5EC",
"dX c #DBE4EC",
"fX c #D9E1E8",
"gX c #D9F8E4",
"hX c #DAE6F5",
"jX c #CDEBE5",
"kX c #E5E9ED",
"lX c #E4E7EA",
"zX c #E8F9E9",
"xX c #F5F9E9",
"cX c #E3ECF3",
"vX c #EAEDF3",
"bX c #E4ECF8",
"nX c #EBF2F5",
"mX c #ECF4F9",
"MX c #E9F5F8",
"NX c #F2F6FA",
"BX c #F5FBFC",
"VX c #FAFCFD",
"CX c #F4F8F4",
"ZX c #F3E2E9",
"AX c #EFDFED",
/* pixels */
". . + N H w . . . . . . . . O O O O O O O O O O O O O O O O O O O O O O O O . . . . . . . . . . . . . O O O O O O O O O O O O O O ",
"O O . . . . . O O O . . . . O O O O O O O O O O O O O O O O O O O O O O O . . . . % J q . . . . . . . O O O O O O O O O O O O O O ",
"O O . . . . . . O . . . . . O O O O O O O O O O O O O O O O O O O O O O O . . . . 4 K q . . . . . . . . . O . O O O O O O O O O O ",
"O O . . . . . . . . . . . . O O O O O O O O O O O O O O O O O O O O O O O O . . . . $ . . . . . . . . O O . . O O O O O O O O O O ",
"O O . . . . . . . . . . . . O O O O O O O O O O O O O O O O O O O . . . O O . . . . . . . . . . . . . . . . O O O O O O O O O O O ",
". . O O O O O O O . . . . . . O O O O O O O O O O O O O O O O O O . . . O O O . . . . . . . . . . . . . . . O O . . . O O O O O O ",
". . O . . . . . O . . . . . . O O O O O O O O O O O O O O O O O O O . . . . . . . . . . . . . . . . . . . . . O . . O O O O O O O ",
". . . . . . . . . . . . . O O O O O O O O O O O O O O O O O O O O O O . . . . . . . O . . . . . . . . . . . . . . . O O O O O O O ",
". . . . . . . . . . O O O O O O O O O O O O O O O O O O O O O . O O O O . . . . O O . O . O .     & *   . . . . . . O O O O O O O ",
". O O O O O O O . . O O O O O O O O O O O O O O O O O O O O . . . . . . . . O O . . O O O . . . o y ;   . O . . . . O O O O O O O ",
". . O . . . . . O O O O O O O O O O O O O O O O O O O O O . . . . . . O O   X : : : X . . . . X r I u - o   . O O O O O O O O O O ",
". . O O O O O O O O O O O O O O O O O O O O O O O O O . . . . . . . O O . : h W W o.d * . . . o u i i r y - X O O O O . . . O O O ",
". . O . . O O O O O O O O O O O O O O O O O O O O . . . . . . . . . . @ % h W ~ ~ ! o.p , @ $ o t o t ; ; t 0 X O . . . . . . O O ",
". . . . . . O O O O O O O O O O O O O O O O O O O . . . . . . . . $ 5 x V X.! ~ ~ ! X.+.d.S v 0 y * = 0 o o t -   . . . . . . . . ",
". . . . . . O O O O O O O O O O O O O O O O O O . . . . . . O , q A m.[.U.+.W W ! Q ..Z.>X0X0XT.l.N 8 & 0 - - y . . O . . O O . . ",
". . . . . . O O O O O O O O O O O . . . . . . . . . O O O # c a.P.@X3X6X-Xc.....Q ..+..XfXMXBXkX0X$XV.N = = 0 = . O O . . O O . . ",
". . . . . . O O O O O O O O O O O . . . . . . . O O 1 j j D J.@X3X3X4X7X3X@XY.c.c.Y..XdXNXCXwXaXnXNXcX9XK q + $ . O O . . O O . . ",
"+ + . . . . O . O O O O O O O O O . . . . . . O @ q g.`.`.'.K.K.'.{.@X+X3X3X;X;X>X;XsXBXCXwXkXNXVXVXBXVXdXG.B , O O O . . O O . . ",
"k A . . . . O . O O O O O O O O O . . . O O O 2 M k.+X3X6X6X3X%XOX{.K.L.]. X+X;X;X>XnXNXwXlXVXVXVXVXVXVXBXdXR.S 2 O . . . . . . . ",
"# # . . . . O . O O O O O O O O O . . . O O 7 p.J.+X3X7X3X3X3X3X3X%X+X%XOX{.K.K.{.iXMXkXeXNXVXVXVXVXVXVXVXVXdXXXJ v y o X . . . . ",
". . . . . . O . O O O O O O O O O . . . . O q x.OX3X3X3X3X3X3X3X+XK.K.K.+X6X3X@X{.I.$XW.fXVXVXVXVXVXBXBXVXVXNXiXqXl.T U ; X . . . ",
". . . . . . O . O O O O O . . . . . . . . @ B {.3X3X3X3X3X3X3X3X].OX5X;XI.3X3X6X3X;X#XXXW.=XfXNXVXVXVXBXVXVXVXvXwX*XR Y P o . . . ",
". . . . . . . O O O O O O O O . . . . . O 7 h.;X3X3X3X3X6X3X3X2X].2XhXhXI.-X3X3X3X:XpXNXvXwXW.W.aXNXVXVXVXVXVXVX9XAX~.E T = . . . ",
". . . . . . O O O O O O O O . . . . . . O 5 F.@X#X-X-X-X;X2X3X2X].OXsX8XI.;X3X3X:X0XkXBXVXVXNXaXW.XXfXNXVXVXVXVXlXwXZXR T t . O . ",
". O O O O O O O O O O O O . . . . . . . O & H 8.9.9.9.S.!.W.>X-X-XI.K.].%X3X3X3X:XiXMXBXVXVXVXVXNXfXW.W.aXNXVXVXNX9XNX*XR 8 O O O ",
". . . O O O O O O O O O O O . . . . . . . . d 6.<.1.<.t.e.7.9.C.!..X@X-X3X6X6X3X;XaXBXBXVXVXVXVXVXVXNXwXR.XXkXBXNXwXvXcXV.7 O O O ",
"O O O O O O O O O O O O O O O . . . . . + > #.2.*.*.,.,.3.5.4.t.r.q.9.T..X3X6X2X;XfXBXVXVXVXVXVXVXVXmXcXcXqXR.9XNXlXfXNXXXq O . . ",
"O O O O O O O O O O O . . . . . . . . $ B w.&.*.*.;.-.:.:.>.>.-.3.5.y.7.9.G.OX2X;XpXNXBXVXVXBXBXNXaX$XP.I.=XvXXXE.iXwXVXcXA O . . ",
"O O O O O O O O O O . . . . . . . . . z R.9.t.*.*.-.=.=.=.:.>.:.:.:.3.u.q./.>XU.U.XX0XfXmXVXBXBXcX.XI.-XaXW.qXVXlXR.XXNXBXH.# . . ",
"O O O O O O O O O . . . . . . . O 4 n h.#X!.6.2.;.=.=.:.:.:.>.:.:.>.5.e.).xXCXzXiX.X{..X>XfXnXCXcX.X XpXbXqX=XVXVXmX=X.XkX#Xq . . ",
"O O O O O O O O O . . . . . . . # J $X+X$X9XD.$.3.-.=.=.:.:.:.:.=.,.<.0.xXxXxXzXgXjX1X^.U. X>XdXvX:X{.;XsX.XaXNXBXVXNXaXXXR.l . . ",
"O O O O O O O O O . . . . . . . q I.5XhX0XXXyX0.&.,.=.=.=.=.=.=.-.4.7.uXxXxXrX^.v.| | @.n.^.U..X0XhX>XR.R.0XNXVXVXVXVXVXvXW.A $ O ",
"O O O O O O O O O . . . . . . . 9 P.5XhX#X{.sXlX_.6.4.,.=.:.=.=.,.t.D.xXxXrXv.` ^ ^ / ^ ( b.1XE.H.XXiXdXnXNXVXVXVXVXVXVXVXNX=XB $ ",
"O O O O O O O O O . . . . . . O $ S ].oX].+X5XsXnX).7.2.,.:.:.=.3.6.).CXgXN.` ^ _ / _ _ ^ ( ^./.9.D.R.=XiXbXBXVXVXVXVXVXVXVXVXR.4 ",
"O O O O O O O O O . . . . . . . @ D [.@X%X3X3X3XsXnX).7.1.,.-.-.5.7.uXzX(.` _ ) _ [ [ ` ^ ^ @.(.0._.C.T. X5XhXMXBXVXBXVXVXBXVXXX2 ",
"O O O O O O O O O . . . . . . . @ Z OX6X3X4X3X3X7XiXvXyX0.&.5.,.5.q.xXgXb.) ^ [ B.<XrX(.@.^ ] A.0.9./.tX|.U.-XiXmXBXBXVXVXBXBXW.4 ",
"O O O O O O O O O . . . . . . . O 6 h.OX@X;X3X3X3X3X:XdXCX).7.<.u.0.uXrX[ ) ( (.gXzXyXzX<X[ [ n.c.N.v.@.b.z.M.|.>XdXNXVXVXBXBXR.B ",
"O O O O O O O O O . . . . . . . . @ c f.m.m.[.4X3X}.K.I.iXnXyXD.0.D.eXrX[ ) n.zX9Xs > L rXv.} z.b. .) / / ' } M.I.;XiXmXVXBXBXI..X",
"O O O O O O O O O . . . . . . . O @ Z h.m.[.L.oX[.].OX.XP.iXcXCXeXH.E.1X[ ' ^.fXw   X & /.n.} [ ( ^ / / _ _ ' v.,XI..X>XcXVXMXR.0X",
"O O O O O O O O O . . . . . . . O 3 a.j.g.L.oXL.].3XsXhX].+X5XfXMXvX=XY.{ ] ,XT.    V c.^.O.} ] @.N.N.| ) _ ) { gXkXH.U.>XmXdXH.V.",
"O O O O O O O O O . . . . . . . O 3 a.g.g.L.[.J.].@XsXhX`.2X7X5XpXcXMXjXY.z./.Z.  * C.tXY.O.} O.+.A.jX1Xv.) / ] <XCXQ.Z..XdXXXD 5 ",
"O O O O O O O O O . . . . . . . O , a.j.j.{.K.m.].'.{.I.oX;X3X3X4X5XsXbXMXaXE.c.% X e 8.9.9.G e X & !.zX<X` / ] rXxX!.S.Y..XA $ @ ",
"O O O O O O O O O . . . . . . . O , h.g.g.L.].OXK.]. X@X7X;X7X7X3X7X4X0XaXbXMXwXG.A C 7.i.q.e   X & C.CXrX| / { gXxXS.Z.B z , O O ",
"O O O O O O O O O . . . . . . . O 5 f.S p.[.3X3X%X].P.+X3X3X6X3X3X3X3X7X4X5XhXmXbXqX!.0.i.8.*   H Q.eXxXrX[ ' ^.zX).C.V + @ O . O ",
"O O O O O O O O O . . . . . . . O B F.Z M {.6X6X3X3X[.L.oX3X6X3X3X3X3X6X6X6X3X0XaXMXCXeX/.Z.w * H lXxXzX^.( { tXxXS.Z.4 O O O . . ",
"O O O O O O O O O . . . . . . . @ S a.j 1 f.3X6X3X3X3XOXL.].%X3X6X3X3X3X3X3X6X3X:X5XsXbXNXkX9XZ.+.eXzXrX{ [ (.uX).C.B . O O . . . ",
"O O O O O . . . . . . . . . O O 5 F.F , @ x ].3X6X3X3X3X&X].K.@X&X3X6X3X3X3X3X6X6X@X].P.qXNXNXCXwXQ.U.c.} ^.zX).S.Z.B + O O . . . ",
"O O O O O O . . . . . . . . O @ B h.c O O , p.+X3X3X3X3X3X3XOXL.].%X6X6X3X3X3X6X+XK.OX@XI.kXVXVXVXVXMXjX,XE.T.C.C.T.H.3 O O . . . ",
"O O O O O O . . . . . O O $ 5 x h.S # O O @ j J.3X+X+X3X3X3X3X[.{.K.[.&X3X3X3X6X}. XiXbX>X9XVXVXVXVXBXVXVXBXnXvXkXCXR.5 O . . . . ",
"O O O O O O . . . . . $ 2 q x.P.h.j O . O O @ Z h.s.s.J.+X3X3X[.3X+X[.'.}.3X3X&XOX[.5XhXXXqXVXVXVXVXVXVXBXVXVXVXVXkXJ # O O . . . ",
"O O O O O O . . . . . 9 d.s.[.m.f.5 O . O @ q z b x n M x.&X@X@X3X3X6X&X}.'.[.+X&X].{.I.XXnXVXVXVXVXVXVXVXVXVXVXNX.XB O . . . . . ",
"O O O O O O . . . . . 4 B Z m.g.p.j @ O O > d g f b x x D oXOX3X3X3X6X3X6X%X[.K.].OX@XiXnXNXVXVXVXVXVXVXVXVXVXVXiXP.Z O . . . . . ",
"O O O O O O . . . . . O O c p.M S S + . = d &.4.t.d b x n  X[.3X6X7X3X7X3X6X3X3XOX].{.#XaXvXNXVXVXVXVXBXVXVXVXaXG.V.5 O . . . . . ",
"O O O O O O . . . . . . . B S 2 q l $ X a $.3.;.u.C k x n {. X3X6X6X6X3X3X3X3X3X3X3X+XoXP.I.W.0XlXMXVXBXVXCXfXx.n 5 O O . . . . . ",
"O O O O O O . . . . . . . # # O . O . & g 2.;.;.y.f w x V 8.Z.XX>X5X3X3X3X6X6X7X3X3X@XOX@X#X=XXXW.E.R.XX0X=XJ 4 @ O O . . . . . . ",
"O O O O O O . . . . . . . . . . O . . e #.3.-.3.e.s l w g r.7.C.I.@X&X%X2X%X%X@XOX[. X:XpXhXmXcXqXG.B 9 j j # O O . . . . . . . . ",
"O O O O O O . . . . . . . . . . O O $ w #.4.5.y.f b b a $.*.2.0.H p.k.m.L.].OX+X2X7XsXhXdXqXI.d.k 2 @ O O O . . . . . . . . . . . ",
"O O O O O O . . . . . . . . . O O O $ w d %.7.f p x b g 1.*.1.#.b x M Z M p.f.h.m.J.P.F.h.k 3 + O O . . . . . . . . O . . . . . . ",
"O O O O O . . . . . . . . . . O O O O c k s s l k x b g e.t.#.s b n z 6 @ < , 2 6 x g.J.S < O . . O O . . . . . O O . . . . . . . ",
"O O O O O O O O O O O O O O O O O . O 3 z z k z n n n s f f s l x z q $ O O O @ 1 D k.[.f., O . . . . . . . . . . O . O O O . . . ",
"O O O O O O O O O O O O O O O . O O O O 3 k z k c 2 l z k l k z z c + O O O $ 2 Z j.g.K.F.3 O O . . . . . . . . . O O O O O O . . ",
"O O O O O O O O O O O O O O O O O O O O O + # + $ O 5 x z b z x 9 $ O O O O @ n a.Z F m.f.S # O O . . . . . . . O O O O O . . . . ",
"O O O O O O O O O O O O O O O O O O O O O O O . . . . 4 S s.j 7 $ $ . . O O O 2 9 1 F F x J 4 O . . . . . . . . . O O O O O . . . ",
"O O O O O O O O O O O O O O O O O O O . . . . . . O . . w N + . . O . . . . . . O 4 J B < 3 $ . . . . . . . . . . O O O O O . X w ",
"O O O O O O O O O O O O O O O O O O . . . . . . . . . . . . . . O . . . . . . . . + l 3 O O . . . . . . . . . . . . . . . . % m L "
};
