/* XPM */
static char *_b4a97af48d64f02d27f18355f671220XqP4a9uN6Xxg3e6Y[] = {
/* columns rows colors chars-per-pixel */
"65 65 178 2 ",
"   c #020106",
".  c #080605",
"X  c #060807",
"o  c #0B0906",
"O  c #01010C",
"+  c #0A050D",
"@  c #07090C",
"#  c #0A0A0D",
"$  c #030212",
"%  c #060A10",
"&  c #0B0C12",
"*  c #0E1014",
"=  c #0E111B",
"-  c #111216",
";  c #13151B",
":  c #16191D",
">  c #1A1B1E",
",  c #161B20",
"<  c #1A1D23",
"1  c #1C2124",
"2  c #1F2629",
"3  c #212325",
"4  c #232529",
"5  c #262A2D",
"6  c #282C2C",
"7  c #2B312F",
"8  c #272E31",
"9  c #2A2E32",
"0  c #2D3234",
"q  c #2E3438",
"w  c #2F383A",
"e  c #313335",
"r  c #323933",
"t  c #31373A",
"y  c #353A3B",
"u  c #3B3E3E",
"i  c #374239",
"p  c #3D473D",
"a  c #434739",
"s  c #424A3D",
"d  c #373D41",
"f  c #393C42",
"g  c #3C4344",
"h  c #3F4943",
"j  c #414543",
"k  c #434C45",
"l  c #4C4D41",
"z  c #444B4B",
"x  c #494E4E",
"c  c #455046",
"v  c #4B5245",
"b  c #47524B",
"n  c #4A544D",
"m  c #4E584D",
"M  c #51564B",
"N  c #515B4F",
"B  c #474E51",
"V  c #494E51",
"C  c #475252",
"Z  c #4C5553",
"A  c #4E5953",
"S  c #4E555A",
"D  c #4F5C5B",
"F  c #505653",
"G  c #535C54",
"H  c #595D55",
"J  c #50565A",
"K  c #535D5B",
"L  c #5B5F59",
"P  c #556155",
"I  c #5A6356",
"U  c #55615B",
"Y  c #5B645C",
"T  c #5D695D",
"R  c #61655B",
"E  c #626C5E",
"W  c #65715F",
"Q  c #565B60",
"!  c #585F60",
"~  c #576561",
"^  c #5B6563",
"/  c #5E6A64",
"(  c #5D666B",
")  c #5F6A6A",
"_  c #626662",
"`  c #626D63",
"'  c #686E66",
"]  c #626D6A",
"[  c #657165",
"{  c #697365",
"}  c #6B7867",
"|  c #66736A",
" . c #6B756B",
".. c #6D796D",
"X. c #70766E",
"o. c #71796F",
"O. c #666F73",
"+. c #657171",
"@. c #697076",
"#. c #6E7477",
"$. c #6A7571",
"%. c #6E7A71",
"&. c #717772",
"*. c #707C73",
"=. c #727D73",
"-. c #767E73",
";. c #737B75",
":. c #747F77",
">. c #727B73",
",. c #787F71",
"<. c #72797A",
"1. c #737A7A",
"2. c #767D7A",
"3. c #747E7A",
"4. c #737D79",
"5. c #748276",
"6. c #7C8475",
"7. c #76807E",
"8. c #76837A",
"9. c #788079",
"0. c #79837A",
"q. c #78827E",
"w. c #7A857C",
"e. c #7C897D",
"r. c #818D7E",
"t. c #757D80",
"y. c #778283",
"u. c #798682",
"i. c #7D8B83",
"p. c #7F8F87",
"a. c #7D8B82",
"s. c #7E8A8A",
"d. c #7E8F88",
"f. c #7F8D8B",
"g. c #7E8E8A",
"h. c #7E8F8D",
"j. c #7F8D8E",
"k. c #7E8E89",
"l. c #7E9287",
"z. c #7E9083",
"x. c #7F918C",
"c. c #7F908B",
"v. c #818E83",
"b. c #828F89",
"n. c #818B8E",
"m. c #808F8D",
"M. c #838F8D",
"N. c #838F8E",
"B. c #818E8E",
"V. c #818E89",
"C. c #809387",
"Z. c #809087",
"A. c #849185",
"S. c #899486",
"D. c #809388",
"F. c #82938A",
"G. c #849188",
"H. c #859389",
"J. c #84928A",
"K. c #839589",
"L. c #86968B",
"P. c #83918D",
"I. c #85908F",
"U. c #84928D",
"Y. c #85948D",
"T. c #86978D",
"R. c #87948F",
"E. c #84968C",
"W. c #84928A",
"Q. c #89968B",
"!. c #8B998D",
"~. c #909E8F",
"^. c #889790",
"/. c #8B9793",
"(. c #899394",
"). c #8E9A97",
"_. c #8E9D93",
"`. c #93A193",
/* pixels */
"O O O O O O O O O O O O O O O O O O O           O     O O O O O   O O O O O O O O O O O O O O O O O O O O O O O O O O O O     O   ",
"O O O O O O O O O O O O O O O O O O O         O O     O O O $ O O O O O O O O O O O O O O O O O O O O O O O O O O O O O O   O O   ",
"O O O O O O O O O O O O O O O O O O O O       O O O O O O O $ $ O O $ $ O O O O O O O O O O O O O O O O O O O O O O O O O O O O   ",
"O O O O O O O O O O O O O O O O O O O O       O O O O O O O O O $ O O O O O   O O         O O O O O O O O O O O O O O O O O O O O ",
"O O O O O O O O O O O O O O O O O O O O       O $ $ $ $ O O   O O O O O O O O   O O O   O O   O O O O O O O O O O O O O O O O $ + ",
"O O O O O O O O O O O O O O O O O O O O       O $ $ $ $ $ O     O O O O O O $ O O O O         O O O O O O O O O O O O O O O O $ + ",
"O O O O O O O O O O O O O O O O O O O         O O $ $ $ $ $ $ O $ $ $ @ $ O $ O               O O O O   O O O O O O O O O O O $ + ",
"O O O O O O O O O O O O O O O O O O O O   O O O $ $ $ $ O   O O O @ @ O     @               O O O O     O O O O O O O O O O O $ + ",
"O O O O O O O O O O O O O O O O O O O O     O O   O O         X X X X @ @ @ # @ @           O O         O O O O O O O O O   O O # ",
"O O O O O O O O O O O O O O O O O O O O O         @ @ - 1 4 6 r r r y y y y y 9 > & @     O             O O O O O O O O O     O # ",
"O O O O O O O O O O O O O O O O O O O O       @ < 0 g Z K ) $.*.=.=.:.3.1.1.#._ Z u 6 & @               O O O O O O O O O   O O # ",
"O O O O O O O O O O O O O O O O O         @ : 9 S @.y.B.j.j.(./.Y.G.Y.I.B.B.s.7.3. .H e : # O       O O O O O O O O O O O   O   # ",
"O O O O O O O O O O O O O O O O O O     # 2 J t.n.s.i.d.x.P.I.P.l.G.Y././.Y.d.9.9. .Y Z g 3 # O O O O O O O O O O O O O O O     o ",
"O O O O O O O O O O O O O O O O O $ $ & 0 ^ d.).)./.G.p.d.p.G.J.A.K.H.H.J.J.a.w.-.` G Y Y J e - @ @ O O O O O O O O O O O       o ",
"O O O O O O O O O O O O O O O O $ $ ; f ] u.I.^.R.A.A.a.a.A.J.J.z.A.H.H.A.A.a.e.,.E T  . .] K 9 &     O   O O O O O O O O O O   o ",
"O O O O O O O O O O O O O O O O $ = f $.u.b.J.A.v.e.w.w.e.a.J.G.A.A.J.A.A.A.A.v.6.' ` &.*.| U g 1 @     O O O O O O O O O O O O . ",
"O O O O O O O O O O O O O O O O = q ^ 7.b.J.J.v.w.:...&.:.9.u.u.A.A.Q.R.Q.S.S.r.6. .]  .$.%.] K z 1 O   O O O O O O O O O O O O X ",
"O O O O O O O O O     O O     & 5 Z *.i.J.G.e.:.%. .|  ...%.;.9.e.v.A.H.H.A.A.A.e.:. .] ] $.$.) J f & O O O O O O O O O O   O O X ",
"O O O O O O O O O   O O O   @ : z | w.v.b.e.&. . ... ..... . .%.5.w.e.r.v.A.S.A.r.9.&.' `  .$.] ~ V & O O   O O O O O O O O O O   ",
"O O O O O O O O O   O O   O @ r ] w.A.r.w.:. . .X.....%...| ] | =.6.e.r.r.A.S.A.A.e.%.` ^ | $.+.^ J y : @ @   O O O O O O O   O   ",
"O O O O O O O O O   O O     : b %.a.A.e.=. . .X.&.X.%.%.{ T Y T  .6.r.A.A.H.S.Q.!.H.9.{ / ] +.+.) K Z 0 @     O O O O O O         ",
"O O O O O O O O O O O O   @ 0 Y 5.a.a.w.&. .X.&.&.&.&. .{ E Y Y { 6.S.S.S.Q.!._._._.a.;.| ] ] +.) D Z g - @ O O O O O O O O       ",
"O O O O O O O O O O       ; x $.u.A.v.9.&. .o.-.:.;.&. .{ _ T I E 6.S.S.!.~.`._.^._.G.u.4.$.( ) ( C C K 5 @ O O O O O O O O       ",
"O O O O O O O O O       # 7 K  .u.G.v.9.&. .X.o.&.&.&. ._ R Y I R o.e.A.H.`.!.e.5.A.Y.b.w.%.~ K ^ C S ( g %   O O   O O O O O     ",
"O O O O O O O O O O     : k Y  .a.p.a.9.%.{  .{  . . ._ L H H H R { ..5.e.!.w.[ | 5.d.P.u.4.] Y Y A K ] C ;     O O O O O O O     ",
"O O O O O O O O O O   @ 0 A Y %.A.a.a.9.%.{ ' _ _ _ _ L H H L H R ' [  ...e. .T | | %.d.c.8.%.] Y A U ] K 1     O O O O O       O ",
"O O O O O O O O O O   - g A / 5.A.G.v.e.:...' Y G H Y H H T _ _ ' { { { `  .T T  .| | w.E.p.w.%.| U ^ O.^ 8       O O O           ",
"O O O O O O O O O O   < x U ] 4.A.H.A.a.w.:.{ H M H Y T ` {  .{  .o... .` E Y T  ... .5.K.G.i.u.8.) ) +.] y @     O O O           ",
"O O O O O O O O O O   3 Z ^ ] 4.p.A.A.b.e.9.' H G T ` '  .&.&. . .o.....[ E P I [ %.%.9.P.G.d.A.p.%.| +.+.z *   O O O             ",
"O O O O O O O O O O   9 J Y ] %.a.b.b.b.e.=.` I T '  .&.&.&.&.&.o.&.....} [ P P T  .$.5.G.G.G.G.a.%.| +.O.J >   O O         O O   ",
"O O O O O O O O O O @ 0 J Y [ %.w.v.A.v.w. .T T ' '  .&.;.;.&.&.&.=.&.o. .' G G T ] [ ;.G.G.Y.Y.b.;. .+.O.Q <     O O       O O O ",
"O O O O O O O O O O @ 0 J /  .%.5.u.p.a.9.{ T ` { { $.&.2.2.*.*.&.;.%.%. .` G G I T Y &.G.G.Y.J.b.5. .| $.K <     O O O O O O O O ",
"O O O O O O O O O O @ 0 J ` | ..=.8.e.5...T Y ` {  .&.&.;.2.*.*.&.;.%.%. .T G N P P G  .p.J.J.b.w.=... .$.K >   O O O O O O O O O ",
"O O O O O O O O O   @ 0 J ` | | ..5.5...` H N T '  .&.&.;.*.*.&.&.:.;.%.| T H N H G G  .w.p.a.e.9.%. . .$.L >   O O O O O O O O O ",
"O O O O O O O O     @ e K ` | |  .%...[ T N m I ` {  .&.>.>.&.>.>.5.;. .` T P G G G U  .;.w.u.9.;. . . . .K >     O O O     O O O ",
"O O O O O O O O     @ e Y ] ] ] ] | { ` Y N m H T '  .X.&.&.&.&.>.:.5...E Y H I P U T [  .5.9.;.&. . . . .Y >     O O O     O O O ",
"O O O O O O O O     O 5 K / ] / ] |  .[ T P m m P T [  .o... .....=.=.{ E I N Y P Y ` ` | 5.5... . .{ {  .Y 1   O O O O     O     ",
"O O O O O O O O       1 S ) ) / ] ' { | ] T N m G Y `  ..... ...=.o. .E T I M I Y ` [ ` [ =... .{ { { {  .Y 3   O O O O           ",
"O O O O O O O O O     , B ] / / / T `  .| ] P m N Y ` {  . . .....{ ` Y I H l H T ' { { { } } { { { { { { H 3 O O O O O O O       ",
"O O O O O O O O O O   & g ) / Y P H ~ ] $.] H m m P T ` [ [ [ ] [ T I T I M a I [ [ {  .{ { { [ { { ' ` T b >   O O O O O O       ",
"O O O O O O O O O O   @ 9 K ^ U G J K ^ ] ` U m b m U T T Y / Y T U Y T H v a I  .[ { } { [ E W W E E T P g ;   O O O O O         ",
"O O O O O O O O O O     < z K K K G K ~ / ] ^ G n n A G K U U U U Y Y P m k s T ..[ { ..} [ E E E E Y Y P y &   O O O O O         ",
"O O O O O O O O O O O O & 0 C J K U U Y ] | ] U A C Z A J K K K K Y U m k j v T .. . .}  .[ [ Y P Y U U A 0 @   O O O O O O O O O ",
"O O O O O O O O O O O O   , g Z K Y U U / | | Y K K A A K U U K K U A k j k m / %. . . .| [ [ U A U K J x 4 O   O O O O O O O O O ",
"O O O O O O O O O O O O   & 9 V J K G A U ] ] ~ U G n Z G U U G J A b h k b m ^ $. . .| | | | U A D D S g :     O O O O O O O O O ",
"O O O O O O O O O O O O     , d B Z K A K / ] ] / G n n G U G Z b x k k z b Z U ] |  . .| ] ] ^ K K J Z 9 @     O O O O O O O O O ",
"O O O O O O O O O O O       & < y x C C K ] $.%.| Y G n n m b b j k k k c b A U ] $.%.| ] ] / Y K A Z g ;         O O O O O O O O ",
"O O O O O O O O O O O O       & 1 w g z A ] ..| [ / U n k s s p j k k c c n G ^ | %.%.| / / U K A J b 4 @         O O O O O O O O ",
"O O O O O O O O O O O O O   O O & < q g D ( / Y I U G n h i p p c c b b n m I / ` ] | ] ] ^ K A A J y &         O O O O O O O O O ",
"O O O O O O O O O O O O O O O O O $ ; 9 g B Z C C b b b k k b n n n n m A G P U Y Y ( ] ( ~ Y J K C 1 @     O O O O O O O O O O O ",
"O O O O O O O O O O O O O O O O   O @ & : 4 t g g g h k b b A G A m A G A A m G H K Y ^ ^ Y K K J d &       O O O O O O O O O O O ",
"O O O O O O O O O O O O O O O O O O       @ & ; 1 4 6 t g z C A A A A J A A m m G K K J K Z Z z t , @ O     O O O O O O O O O O O ",
"O O O O O O O O O O O O O O O     O O   O     O & * ; 1 5 e g x b Z Z A Z Z n k b F Z C C z g 8 ; O O O O O O O O O O O O O O O O ",
"O O O O O O O O O O O O O O O O O O O O O O O O O   @ # & - 3 t g V Z Z Z C C x b Z z g t 5 , & O O O O O O O O O O O O O O O O O ",
"O O O O O O O O O O O O O O O O O O O O O O O O O O O O   O & : 4 y g z x z z z j u 0 1 ; & $ O O O O O O O O O O O O O O O O O O ",
"O O O O O O O O O O O O O O O O O O O O O O O O O O O O       @ & : < 3 3 4 5 5 3 > - #     O O O O O O O O O O O O O O O O O O O ",
"O O O O O O O O O O O O O O O O O O O O O O O O O O O O O O O O O O @ + + & & & # @         O O O O O O O O O O O O O O O O O O O ",
"O O O O O O O O O O O O O O O O O O O O O O O O O O O O O O O O O   O   O O O             O O O O O O O O O O O O O O O O O O O O ",
"O O O O O O O O O O O O O O O O O O O O O O O O O O O O O O O O O O O O O O O O O O       O O O O O O O O O O O O O O O O O O O O ",
"O O O O O O O O O O O O O O O O O O O O O O O O O O O O O O O O O O O O O O O O O O O O O O O O O O O O O O O O O O O O O O O O O ",
"O O O O O O O O O O O O O O O O O O O O O O O O O O O O O O O O O O O O O O O O O O $ O O O O O O O O O O O O O O O O O O O O O O ",
"O O O O O O O O O O O O O O O O O O O O O O O O O O O O O O O O O O   O   O   O O O O O O O O O O O O O O O O O O O O O O O O O O ",
"O O O O O O O O O O O O O O O O O O O O O O O O O O O O O O O O O O O O O O O O O O O O O O O O O O O O O O O O O O O O O O O O O ",
"O O O O O O O O O O O O O O O O O O O O O O O O O O O O O O O O O O O O O O O O O O O O O O O O O O O O O O O O O O O O O O O O O ",
"O O O O O O O O O O O O O O O O O O O O O O O O O O O O O O O O   O O O O O O O O O O O O O O O O O O O O O O O O O O O O O O O O "
};
